<svg width="9.9in" height="8.5in" version="1.1" viewBox="0 0 954 812" xmlns="http://www.w3.org/2000/svg">
 <g transform="translate(-29 -67)">
  <path transform="translate(14 67)" d="m148 115-2.6 3.1 310 260-315-220-2.3 3.3 315 220-350-202-2 3.5 350 202-348-162-1.7 3.6 348 162-380-138-1.4 3.8 380 138-371-99-1 3.9 371 99-398-70-0.7 3.9 398 70-383-33-0.35 4 383 33h-404v4h404l-383 33 0.35 4 383-33-398 70 0.7 3.9 398-70-371 99 1 3.9 371-99-380 138 1.4 3.8 380-138-348 162 1.7 3.6 348-162-350 202 2 3.5 350-202-315 220 2.3 3.3 315-220-310 260 2.6 3.1 343-288 343 288 2.6-3.1-310-260 315 220 2.3-3.3-315-220 350 202 2-3.5-350-202 348 162 1.7-3.6-348-162 380 138 1.4-3.8-380-138 371 99 1-3.9-371-99 398 70 0.7-3.9-398-70 383 33 0.35-4-383-33h404v-4h-404l383-33-0.35-4-383 33 398-70-0.7-3.9-398 70 371-99-1-3.9-371 99 380-138-1.4-3.8-380 138 348-162-1.7-3.6-348 162 350-202-2-3.5-350 202 315-220-2.3-3.3-315 220 310-260-2.6-3.1-343 288z" fill="#fff" stroke-width="0"/>
  <path transform="translate(14 67)" d="m842 86-4.9 21h12v9.4h3.5v-9.4h1v-3.2h-1v-18h-3.5v18h-7.5l4.1-18zm19 0c-0.69 0-1.3 0.13-1.9 0.4-0.59 0.27-1.1 0.63-1.6 1.1-0.45 0.43-0.81 0.95-1.1 1.6-0.24 0.59-0.36 1.2-0.36 1.9v20c0 0.67 0.12 1.3 0.36 1.9 0.27 0.59 0.63 1.1 1.1 1.6 0.45 0.43 0.97 0.77 1.6 1 0.59 0.24 1.2 0.36 1.9 0.36h4.1c0.67 0 1.3-0.12 1.9-0.36 0.61-0.27 1.1-0.61 1.6-1 0.45-0.45 0.8-0.97 1-1.6 0.27-0.61 0.4-1.3 0.4-1.9v-20c0-0.67-0.13-1.3-0.4-1.9-0.24-0.61-0.59-1.1-1-1.6-0.43-0.45-0.95-0.81-1.6-1.1-0.59-0.27-1.2-0.4-1.9-0.4zm0.12 3.2h3.8c0.35 0 0.68 0.13 1 0.4-1.1 2.8-2.1 5.6-3.2 8.4-1 2.8-2.1 5.6-3.2 8.4v-16c0-0.43 0.15-0.79 0.44-1.1 0.29-0.32 0.65-0.48 1.1-0.48zm5.4 5.7v17c0 0.43-0.15 0.79-0.44 1.1-0.27 0.29-0.63 0.44-1.1 0.44h-3.8c-0.51 0-0.92-0.2-1.2-0.6 1.1-2.9 2.2-5.8 3.3-8.7 1.1-2.9 2.2-5.8 3.3-8.7zm23 53c-0.67 0-1.3 0.13-1.9 0.4-0.59 0.24-1.1 0.59-1.6 1-0.43 0.43-0.77 0.95-1 1.6-0.24 0.59-0.36 1.2-0.36 1.9v2h3.4v-2.1c0-0.43 0.15-0.79 0.44-1.1 0.29-0.29 0.65-0.44 1.1-0.44h4.2c0.43 0 0.79 0.15 1.1 0.44 0.29 0.29 0.44 0.65 0.44 1.1v6.4c0 0.43-0.15 0.79-0.44 1.1-0.29 0.29-0.65 0.44-1.1 0.44h-3.8v3.2h4.3c0.43 0 0.79 0.15 1.1 0.44 0.29 0.29 0.44 0.65 0.44 1.1v8c0 0.43-0.15 0.79-0.44 1.1-0.29 0.29-0.65 0.44-1.1 0.44h-4.6c-0.43 0-0.79-0.15-1.1-0.44-0.29-0.29-0.44-0.65-0.44-1.1v-2.1h-3.4v2c0 0.67 0.12 1.3 0.36 1.9 0.27 0.59 0.61 1.1 1 1.6 0.45 0.43 0.97 0.77 1.6 1 0.61 0.24 1.3 0.36 1.9 0.36h4.8c0.67 0 1.3-0.12 1.9-0.36 0.61-0.27 1.1-0.61 1.6-1 0.45-0.45 0.8-0.97 1-1.6 0.27-0.61 0.4-1.3 0.4-1.9v-7.8c0-0.69-0.13-1.3-0.4-1.9s-0.64-1.1-1.1-1.6c0.32-0.45 0.57-0.91 0.76-1.4 0.19-0.48 0.28-1 0.28-1.6v-6.2c0-0.67-0.13-1.3-0.4-1.9-0.27-0.61-0.63-1.1-1.1-1.6-0.43-0.45-0.95-0.8-1.6-1-0.59-0.27-1.2-0.4-1.9-0.4zm18 0c-0.69 0-1.3 0.13-1.9 0.4s-1.1 0.63-1.6 1.1c-0.45 0.43-0.81 0.95-1.1 1.6-0.24 0.59-0.36 1.2-0.36 1.9v20c0 0.67 0.12 1.3 0.36 1.9 0.27 0.59 0.63 1.1 1.1 1.6 0.45 0.43 0.97 0.77 1.6 1 0.59 0.24 1.2 0.36 1.9 0.36h4.1c0.67 0 1.3-0.12 1.9-0.36 0.61-0.27 1.1-0.61 1.6-1 0.45-0.45 0.8-0.97 1-1.6 0.27-0.61 0.4-1.3 0.4-1.9v-20c0-0.67-0.13-1.3-0.4-1.9-0.24-0.61-0.59-1.1-1-1.6-0.43-0.45-0.95-0.81-1.6-1.1-0.59-0.27-1.2-0.4-1.9-0.4zm0.12 3.2h3.8c0.35 0 0.68 0.13 1 0.4-1.1 2.8-2.1 5.6-3.2 8.4-1 2.8-2.1 5.6-3.2 8.4v-16c0-0.43 0.15-0.79 0.44-1.1 0.29-0.32 0.65-0.48 1.1-0.48zm5.4 5.7v17c0 0.43-0.15 0.79-0.44 1.1-0.27 0.29-0.63 0.44-1.1 0.44h-3.8c-0.51 0-0.92-0.2-1.2-0.6 1.1-2.9 2.2-5.8 3.3-8.7 1.1-2.9 2.2-5.8 3.3-8.7zm12 62c-0.72 0-1.4 0.13-2 0.4s-1.2 0.64-1.7 1.1c-0.45 0.48-0.83 1-1.1 1.7-0.27 0.61-0.4 1.3-0.4 2v1.7h3.5v-1.7c0-0.51 0.17-0.93 0.52-1.3 0.37-0.37 0.81-0.56 1.3-0.56h2.8c0.53 0 0.97 0.19 1.3 0.56 0.37 0.35 0.56 0.77 0.56 1.3v4.7c0 0.64-0.2 1.2-0.6 1.6-0.37 0.45-0.81 0.85-1.3 1.2l-5 3.4c-0.96 0.69-1.8 1.5-2.4 2.4-0.61 0.91-0.92 2-0.92 3.2v8.5h13v-3.2h-10v-5.4c0-0.67 0.19-1.2 0.56-1.6 0.37-0.45 0.81-0.85 1.3-1.2l5-3.4c0.96-0.69 1.7-1.5 2.4-2.4 0.64-0.91 0.96-2 0.96-3.2v-4.6c0-0.72-0.15-1.4-0.44-2-0.27-0.64-0.64-1.2-1.1-1.7-0.45-0.48-1-0.85-1.6-1.1-0.61-0.27-1.3-0.4-2-0.4zm16 0c-0.69 0-1.3 0.13-1.9 0.4s-1.1 0.63-1.6 1.1c-0.45 0.43-0.81 0.95-1.1 1.6-0.24 0.59-0.36 1.2-0.36 1.9v20c0 0.67 0.12 1.3 0.36 1.9 0.27 0.59 0.63 1.1 1.1 1.6 0.45 0.43 0.97 0.77 1.6 1 0.59 0.24 1.2 0.36 1.9 0.36h4.1c0.67 0 1.3-0.12 1.9-0.36 0.61-0.27 1.1-0.61 1.6-1 0.45-0.45 0.8-0.97 1-1.6 0.27-0.61 0.4-1.3 0.4-1.9v-20c0-0.67-0.13-1.3-0.4-1.9-0.24-0.61-0.59-1.1-1-1.6-0.43-0.45-0.95-0.81-1.6-1.1-0.59-0.27-1.2-0.4-1.9-0.4zm0.12 3.2h3.8c0.35 0 0.68 0.13 1 0.4-1.1 2.8-2.1 5.6-3.2 8.4-1 2.8-2.1 5.6-3.2 8.4v-16c0-0.43 0.15-0.79 0.44-1.1 0.29-0.32 0.65-0.48 1.1-0.48zm5.4 5.7v17c0 0.43-0.15 0.79-0.44 1.1-0.27 0.29-0.63 0.44-1.1 0.44h-3.8c-0.51 0-0.92-0.2-1.2-0.6 1.1-2.9 2.2-5.8 3.3-8.7 1.1-2.9 2.2-5.8 3.3-8.7zm-5.5 69v3.2h1v27h3.5v-30zm13 0c-0.69 0-1.3 0.13-1.9 0.4-0.59 0.27-1.1 0.63-1.6 1.1-0.45 0.43-0.81 0.95-1.1 1.6-0.24 0.59-0.36 1.2-0.36 1.9v20c0 0.67 0.12 1.3 0.36 1.9 0.27 0.59 0.63 1.1 1.1 1.6 0.45 0.43 0.97 0.77 1.6 1 0.59 0.24 1.2 0.36 1.9 0.36h4.1c0.67 0 1.3-0.12 1.9-0.36 0.61-0.27 1.1-0.61 1.6-1 0.45-0.45 0.8-0.97 1-1.6 0.27-0.61 0.4-1.3 0.4-1.9v-20c0-0.67-0.13-1.3-0.4-1.9-0.24-0.61-0.59-1.1-1-1.6-0.43-0.45-0.95-0.81-1.6-1.1-0.59-0.27-1.2-0.4-1.9-0.4zm0.12 3.2h3.8c0.35 0 0.68 0.13 1 0.4-1.1 2.8-2.1 5.6-3.2 8.4-1 2.8-2.1 5.6-3.2 8.4v-16c0-0.43 0.15-0.79 0.44-1.1 0.29-0.32 0.65-0.48 1.1-0.48zm5.4 5.7v17c0 0.43-0.15 0.79-0.44 1.1-0.27 0.29-0.63 0.44-1.1 0.44h-3.8c-0.51 0-0.92-0.2-1.2-0.6 1.1-2.9 2.2-5.8 3.3-8.7 1.1-2.9 2.2-5.8 3.3-8.7zm-0.2 86c-0.69 0-1.3 0.13-1.9 0.4-0.59 0.27-1.1 0.63-1.6 1.1-0.45 0.43-0.81 0.95-1.1 1.6-0.24 0.59-0.36 1.2-0.36 1.9v20c0 0.67 0.12 1.3 0.36 1.9 0.27 0.59 0.63 1.1 1.1 1.6 0.45 0.43 0.97 0.77 1.6 1 0.59 0.24 1.2 0.36 1.9 0.36h4.1c0.67 0 1.3-0.12 1.9-0.36 0.61-0.27 1.1-0.61 1.6-1 0.45-0.45 0.8-0.97 1-1.6 0.27-0.61 0.4-1.3 0.4-1.9v-20c0-0.67-0.13-1.3-0.4-1.9-0.24-0.61-0.59-1.1-1-1.6-0.43-0.45-0.95-0.81-1.6-1.1-0.59-0.27-1.2-0.4-1.9-0.4zm0.12 3.2h3.8c0.35 0 0.68 0.13 1 0.4-1.1 2.8-2.1 5.6-3.2 8.4-1 2.8-2.1 5.6-3.2 8.4v-16c0-0.43 0.15-0.79 0.44-1.1 0.29-0.32 0.65-0.48 1.1-0.48zm5.4 5.7v17c0 0.43-0.15 0.79-0.44 1.1-0.27 0.29-0.63 0.44-1.1 0.44h-3.8c-0.51 0-0.92-0.2-1.2-0.6 1.1-2.9 2.2-5.8 3.3-8.7 1.1-2.9 2.2-5.8 3.3-8.7zm-24 82v3.2h1v27h3.5v-30zm13 0c-0.69 0-1.3 0.13-1.9 0.4-0.59 0.27-1.1 0.63-1.6 1.1-0.45 0.43-0.81 0.95-1.1 1.6-0.24 0.59-0.36 1.2-0.36 1.9v20c0 0.67 0.12 1.3 0.36 1.9 0.27 0.59 0.63 1.1 1.1 1.6 0.45 0.43 0.97 0.77 1.6 1 0.59 0.24 1.2 0.36 1.9 0.36h4.1c0.67 0 1.3-0.12 1.9-0.36 0.61-0.27 1.1-0.61 1.6-1 0.45-0.45 0.8-0.97 1-1.6 0.27-0.61 0.4-1.3 0.4-1.9v-20c0-0.67-0.13-1.3-0.4-1.9-0.24-0.61-0.59-1.1-1-1.6-0.43-0.45-0.95-0.81-1.6-1.1-0.59-0.27-1.2-0.4-1.9-0.4zm0.12 3.2h3.8c0.35 0 0.68 0.13 1 0.4-1.1 2.8-2.1 5.6-3.2 8.4-1 2.8-2.1 5.6-3.2 8.4v-16c0-0.43 0.15-0.78 0.44-1.1 0.29-0.32 0.65-0.48 1.1-0.48zm5.4 5.7v17c0 0.43-0.15 0.79-0.44 1.1-0.27 0.29-0.63 0.44-1.1 0.44h-3.8c-0.51 0-0.92-0.2-1.2-0.6 1.1-2.9 2.2-5.8 3.3-8.7 1.1-2.9 2.2-5.8 3.3-8.7zm-33 67c-0.72 0-1.4 0.13-2 0.4-0.64 0.27-1.2 0.64-1.7 1.1-0.45 0.48-0.83 1-1.1 1.7-0.27 0.61-0.4 1.3-0.4 2v1.7h3.5v-1.7c0-0.51 0.17-0.93 0.52-1.3 0.37-0.37 0.81-0.56 1.3-0.56h2.8c0.53 0 0.97 0.19 1.3 0.56 0.37 0.35 0.56 0.77 0.56 1.3v4.7c0 0.64-0.2 1.2-0.6 1.6-0.37 0.45-0.81 0.85-1.3 1.2l-5 3.4c-0.96 0.69-1.8 1.5-2.4 2.4-0.61 0.91-0.92 2-0.92 3.2v8.5h13v-3.2h-10v-5.4c0-0.67 0.19-1.2 0.56-1.6 0.37-0.45 0.81-0.85 1.3-1.2l5-3.4c0.96-0.69 1.7-1.5 2.4-2.4 0.64-0.91 0.96-2 0.96-3.2v-4.6c0-0.72-0.15-1.4-0.44-2-0.27-0.64-0.64-1.2-1.1-1.7-0.45-0.48-1-0.85-1.6-1.1-0.61-0.27-1.3-0.4-2-0.4zm16 0c-0.69 0-1.3 0.13-1.9 0.4-0.59 0.27-1.1 0.63-1.6 1.1-0.45 0.43-0.81 0.95-1.1 1.6-0.24 0.59-0.36 1.2-0.36 1.9v20c0 0.67 0.12 1.3 0.36 1.9 0.27 0.59 0.63 1.1 1.1 1.6 0.45 0.43 0.97 0.77 1.6 1 0.59 0.24 1.2 0.36 1.9 0.36h4.1c0.67 0 1.3-0.12 1.9-0.36 0.61-0.27 1.1-0.61 1.6-1 0.45-0.45 0.8-0.97 1-1.6 0.27-0.61 0.4-1.3 0.4-1.9v-20c0-0.67-0.13-1.3-0.4-1.9-0.24-0.61-0.59-1.1-1-1.6-0.43-0.45-0.95-0.81-1.6-1.1-0.59-0.27-1.2-0.4-1.9-0.4zm0.12 3.2h3.8c0.35 0 0.68 0.13 1 0.4-1.1 2.8-2.1 5.6-3.2 8.4-1 2.8-2.1 5.6-3.2 8.4v-16c0-0.43 0.15-0.79 0.44-1.1 0.29-0.32 0.65-0.48 1.1-0.48zm5.4 5.7v17c0 0.43-0.15 0.79-0.44 1.1-0.27 0.29-0.63 0.44-1.1 0.44h-3.8c-0.51 0-0.92-0.2-1.2-0.6 1.1-2.9 2.2-5.8 3.3-8.7 1.1-2.9 2.2-5.8 3.3-8.7zm-59 65c-0.67 0-1.3 0.13-1.9 0.4-0.59 0.24-1.1 0.59-1.6 1-0.43 0.43-0.77 0.95-1 1.6-0.24 0.59-0.36 1.2-0.36 1.9v2h3.4v-2.1c0-0.43 0.15-0.79 0.44-1.1 0.29-0.29 0.65-0.44 1.1-0.44h4.2c0.43 0 0.79 0.15 1.1 0.44 0.29 0.29 0.44 0.65 0.44 1.1v6.4c0 0.43-0.15 0.79-0.44 1.1-0.29 0.29-0.65 0.44-1.1 0.44h-3.8v3.2h4.3c0.43 0 0.79 0.15 1.1 0.44 0.29 0.29 0.44 0.65 0.44 1.1v8c0 0.43-0.15 0.79-0.44 1.1-0.29 0.29-0.65 0.44-1.1 0.44h-4.6c-0.43 0-0.79-0.15-1.1-0.44-0.29-0.29-0.44-0.65-0.44-1.1v-2.1h-3.4v2c0 0.67 0.12 1.3 0.36 1.9 0.27 0.59 0.61 1.1 1 1.6 0.45 0.43 0.97 0.77 1.6 1 0.61 0.24 1.3 0.36 1.9 0.36h4.8c0.67 0 1.3-0.12 1.9-0.36 0.61-0.27 1.1-0.61 1.6-1 0.45-0.45 0.8-0.97 1-1.6 0.27-0.61 0.4-1.3 0.4-1.9v-7.8c0-0.69-0.13-1.3-0.4-1.9s-0.64-1.1-1.1-1.6c0.32-0.45 0.57-0.91 0.76-1.4 0.19-0.48 0.28-1 0.28-1.6v-6.2c0-0.67-0.13-1.3-0.4-1.9-0.27-0.61-0.63-1.1-1.1-1.6-0.43-0.45-0.95-0.8-1.6-1-0.59-0.27-1.2-0.4-1.9-0.4zm18 0c-0.69 0-1.3 0.13-1.9 0.4-0.59 0.27-1.1 0.63-1.6 1.1-0.45 0.43-0.81 0.95-1.1 1.6-0.24 0.59-0.36 1.2-0.36 1.9v20c0 0.67 0.12 1.3 0.36 1.9 0.27 0.59 0.63 1.1 1.1 1.6 0.45 0.43 0.97 0.77 1.6 1 0.59 0.24 1.2 0.36 1.9 0.36h4.1c0.67 0 1.3-0.12 1.9-0.36 0.61-0.27 1.1-0.61 1.6-1 0.45-0.45 0.8-0.97 1-1.6 0.27-0.61 0.4-1.3 0.4-1.9v-20c0-0.67-0.13-1.3-0.4-1.9-0.24-0.61-0.59-1.1-1-1.6-0.43-0.45-0.95-0.81-1.6-1.1-0.59-0.27-1.2-0.4-1.9-0.4zm0.12 3.2h3.8c0.35 0 0.68 0.13 1 0.4-1.1 2.8-2.1 5.6-3.2 8.4-1 2.8-2.1 5.6-3.2 8.4v-16c0-0.43 0.15-0.79 0.44-1.1 0.29-0.32 0.65-0.48 1.1-0.48zm5.4 5.7v17c0 0.43-0.15 0.79-0.44 1.1-0.27 0.29-0.63 0.44-1.1 0.44h-3.8c-0.51 0-0.92-0.2-1.2-0.6 1.1-2.9 2.2-5.8 3.3-8.7 1.1-2.9 2.2-5.8 3.3-8.7zm-69 60-4.9 21h12v9.4h3.5v-9.4h1v-3.2h-1v-18h-3.5v18h-7.5l4.1-18zm19 0c-0.69 0-1.3 0.13-1.9 0.4-0.59 0.27-1.1 0.63-1.6 1.1-0.45 0.43-0.81 0.95-1.1 1.6-0.24 0.59-0.36 1.2-0.36 1.9v20c0 0.67 0.12 1.3 0.36 1.9 0.27 0.59 0.63 1.1 1.1 1.6 0.45 0.43 0.97 0.77 1.6 1 0.59 0.24 1.2 0.36 1.9 0.36h4.1c0.67 0 1.3-0.12 1.9-0.36 0.61-0.27 1.1-0.61 1.6-1 0.45-0.45 0.8-0.97 1-1.6 0.27-0.61 0.4-1.3 0.4-1.9v-20c0-0.67-0.13-1.3-0.4-1.9-0.24-0.61-0.59-1.1-1-1.6-0.43-0.45-0.95-0.81-1.6-1.1-0.59-0.27-1.2-0.4-1.9-0.4zm0.12 3.2h3.8c0.35 0 0.68 0.13 1 0.4-1.1 2.8-2.1 5.6-3.2 8.4-1 2.8-2.1 5.6-3.2 8.4v-16c0-0.43 0.15-0.79 0.44-1.1 0.29-0.32 0.65-0.48 1.1-0.48zm5.4 5.7v17c0 0.43-0.15 0.79-0.44 1.1-0.27 0.29-0.63 0.44-1.1 0.44h-3.8c-0.51 0-0.92-0.2-1.2-0.6 1.1-2.9 2.2-5.8 3.3-8.7 1.1-2.9 2.2-5.8 3.3-8.7z"/>
  <path transform="translate(14 67)" d="m112 85-4.9 21h12v9.4h3.5v-9.4h1v-3.2h-1v-18h-3.5v18h-7.5l4.1-18zm19 0c-0.69 0-1.3 0.13-1.9 0.4-0.59 0.27-1.1 0.63-1.6 1.1-0.45 0.43-0.81 0.95-1.1 1.6-0.24 0.59-0.36 1.2-0.36 1.9v20c0 0.67 0.12 1.3 0.36 1.9 0.27 0.59 0.63 1.1 1.1 1.6 0.45 0.43 0.97 0.77 1.6 1 0.59 0.24 1.2 0.36 1.9 0.36h4.1c0.67 0 1.3-0.12 1.9-0.36 0.61-0.27 1.1-0.61 1.6-1 0.45-0.45 0.8-0.97 1-1.6 0.27-0.61 0.4-1.3 0.4-1.9v-20c0-0.67-0.13-1.3-0.4-1.9-0.24-0.61-0.59-1.1-1-1.6-0.43-0.45-0.95-0.81-1.6-1.1-0.59-0.27-1.2-0.4-1.9-0.4zm0.12 3.2h3.8c0.35 0 0.68 0.13 1 0.4-1.1 2.8-2.1 5.6-3.2 8.4-1 2.8-2.1 5.6-3.2 8.4v-16c0-0.43 0.15-0.79 0.44-1.1 0.29-0.32 0.65-0.48 1.1-0.48zm5.4 5.7v17c0 0.43-0.15 0.79-0.44 1.1-0.27 0.29-0.63 0.44-1.1 0.44h-3.8c-0.51 0-0.92-0.2-1.2-0.6 1.1-2.9 2.2-5.8 3.3-8.7 1.1-2.9 2.2-5.8 3.3-8.7zm-67 57c-0.67 0-1.3 0.13-1.9 0.4-0.59 0.24-1.1 0.59-1.6 1-0.43 0.43-0.77 0.95-1 1.6-0.24 0.59-0.36 1.2-0.36 1.9v2h3.4v-2.1c0-0.43 0.15-0.79 0.44-1.1 0.29-0.29 0.65-0.44 1.1-0.44h4.2c0.43 0 0.79 0.15 1.1 0.44 0.29 0.29 0.44 0.65 0.44 1.1v6.4c0 0.43-0.15 0.79-0.44 1.1-0.29 0.29-0.65 0.44-1.1 0.44h-3.8v3.2h4.3c0.43 0 0.79 0.15 1.1 0.44s0.44 0.65 0.44 1.1v8c0 0.43-0.15 0.79-0.44 1.1-0.29 0.29-0.65 0.44-1.1 0.44h-4.6c-0.43 0-0.79-0.15-1.1-0.44-0.29-0.29-0.44-0.65-0.44-1.1v-2.1h-3.4v2c0 0.67 0.12 1.3 0.36 1.9 0.27 0.59 0.61 1.1 1 1.6 0.45 0.43 0.97 0.77 1.6 1 0.61 0.24 1.3 0.36 1.9 0.36h4.8c0.67 0 1.3-0.12 1.9-0.36 0.61-0.27 1.1-0.61 1.6-1 0.45-0.45 0.8-0.97 1-1.6 0.27-0.61 0.4-1.3 0.4-1.9v-7.8c0-0.69-0.13-1.3-0.4-1.9s-0.64-1.1-1.1-1.6c0.32-0.45 0.58-0.91 0.76-1.4 0.19-0.48 0.28-1 0.28-1.6v-6.2c0-0.67-0.13-1.3-0.4-1.9-0.27-0.61-0.63-1.1-1.1-1.6-0.43-0.45-0.95-0.8-1.6-1-0.59-0.27-1.2-0.4-1.9-0.4zm18 0c-0.69 0-1.3 0.13-1.9 0.4-0.59 0.27-1.1 0.62-1.6 1.1-0.45 0.43-0.81 0.95-1.1 1.6-0.24 0.59-0.36 1.2-0.36 1.9v20c0 0.67 0.12 1.3 0.36 1.9 0.27 0.59 0.63 1.1 1.1 1.6 0.45 0.43 0.97 0.77 1.6 1 0.59 0.24 1.2 0.36 1.9 0.36h4.1c0.67 0 1.3-0.12 1.9-0.36 0.61-0.27 1.1-0.61 1.6-1 0.45-0.45 0.8-0.97 1-1.6 0.27-0.61 0.4-1.3 0.4-1.9v-20c0-0.67-0.13-1.3-0.4-1.9-0.24-0.61-0.59-1.1-1-1.6-0.43-0.45-0.95-0.81-1.6-1.1-0.59-0.27-1.2-0.4-1.9-0.4zm0.12 3.2h3.8c0.35 0 0.68 0.13 1 0.4-1.1 2.8-2.1 5.6-3.2 8.4-1 2.8-2.1 5.6-3.2 8.4v-16c0-0.43 0.15-0.79 0.44-1.1 0.29-0.32 0.65-0.48 1.1-0.48zm5.4 5.7v17c0 0.43-0.15 0.79-0.44 1.1-0.27 0.29-0.63 0.44-1.1 0.44h-3.8c-0.51 0-0.92-0.2-1.2-0.6 1.1-2.9 2.2-5.8 3.3-8.7 1.1-2.9 2.2-5.8 3.3-8.7zm-58 62c-0.72 0-1.4 0.13-2 0.4-0.64 0.27-1.2 0.64-1.7 1.1-0.45 0.48-0.83 1-1.1 1.7-0.27 0.61-0.4 1.3-0.4 2v1.7h3.5v-1.7c0-0.51 0.17-0.93 0.52-1.3 0.37-0.37 0.81-0.56 1.3-0.56h2.8c0.53 0 0.97 0.19 1.3 0.56 0.37 0.35 0.56 0.77 0.56 1.3v4.7c0 0.64-0.2 1.2-0.6 1.6-0.37 0.45-0.81 0.85-1.3 1.2l-5 3.4c-0.96 0.69-1.8 1.5-2.4 2.4-0.61 0.91-0.92 2-0.92 3.2v8.5h13v-3.2h-10v-5.4c0-0.67 0.19-1.2 0.56-1.6 0.37-0.45 0.81-0.85 1.3-1.2l5-3.4c0.96-0.69 1.7-1.5 2.4-2.4 0.64-0.91 0.96-2 0.96-3.2v-4.6c0-0.72-0.15-1.4-0.44-2-0.27-0.64-0.64-1.2-1.1-1.7-0.45-0.48-1-0.85-1.6-1.1-0.61-0.27-1.3-0.4-2-0.4zm16 0c-0.69 0-1.3 0.13-1.9 0.4-0.59 0.27-1.1 0.63-1.6 1.1-0.45 0.43-0.81 0.95-1.1 1.6-0.24 0.59-0.36 1.2-0.36 1.9v20c0 0.67 0.12 1.3 0.36 1.9 0.27 0.59 0.63 1.1 1.1 1.6 0.45 0.43 0.97 0.77 1.6 1 0.59 0.24 1.2 0.36 1.9 0.36h4.1c0.67 0 1.3-0.12 1.9-0.36 0.61-0.27 1.1-0.61 1.6-1 0.45-0.45 0.8-0.97 1-1.6 0.27-0.61 0.4-1.3 0.4-1.9v-20c0-0.67-0.13-1.3-0.4-1.9-0.24-0.61-0.59-1.1-1-1.6-0.43-0.45-0.95-0.81-1.6-1.1-0.59-0.27-1.2-0.4-1.9-0.4zm0.12 3.2h3.8c0.35 0 0.68 0.13 1 0.4-1.1 2.8-2.1 5.6-3.2 8.4-1 2.8-2.1 5.6-3.2 8.4v-16c0-0.43 0.15-0.79 0.44-1.1 0.29-0.32 0.65-0.48 1.1-0.48zm5.4 5.7v17c0 0.43-0.15 0.79-0.44 1.1-0.27 0.29-0.63 0.44-1.1 0.44h-3.8c-0.51 0-0.92-0.2-1.2-0.6 1.1-2.9 2.2-5.8 3.3-8.7 1.1-2.9 2.2-5.8 3.3-8.7zm-38 67v3.2h1v27h3.5v-30zm13 0c-0.69 0-1.3 0.13-1.9 0.4-0.59 0.27-1.1 0.63-1.6 1.1-0.45 0.43-0.81 0.95-1.1 1.6-0.24 0.59-0.36 1.2-0.36 1.9v20c0 0.67 0.12 1.3 0.36 1.9 0.27 0.59 0.63 1.1 1.1 1.6 0.45 0.43 0.97 0.77 1.6 1 0.59 0.24 1.2 0.36 1.9 0.36h4.1c0.67 0 1.3-0.12 1.9-0.36 0.61-0.27 1.1-0.61 1.6-1 0.45-0.45 0.8-0.97 1-1.6 0.27-0.61 0.4-1.3 0.4-1.9v-20c0-0.67-0.13-1.3-0.4-1.9-0.24-0.61-0.59-1.1-1-1.6-0.43-0.45-0.95-0.81-1.6-1.1-0.59-0.27-1.2-0.4-1.9-0.4zm0.12 3.2h3.8c0.35 0 0.68 0.13 1 0.4-1.1 2.8-2.1 5.6-3.2 8.4-1 2.8-2.1 5.6-3.2 8.4v-16c-1e-6 -0.43 0.15-0.79 0.44-1.1 0.29-0.32 0.65-0.48 1.1-0.48zm5.4 5.7v17c0 0.43-0.15 0.79-0.44 1.1-0.27 0.29-0.63 0.44-1.1 0.44h-3.8c-0.51 0-0.92-0.2-1.2-0.6 1.1-2.9 2.2-5.8 3.3-8.7 1.1-2.9 2.2-5.8 3.3-8.7zm-17 85c-0.69 0-1.3 0.13-1.9 0.4-0.59 0.27-1.1 0.63-1.6 1.1-0.45 0.43-0.81 0.95-1.1 1.6-0.24 0.59-0.36 1.2-0.36 1.9v20c0 0.67 0.12 1.3 0.36 1.9 0.27 0.59 0.63 1.1 1.1 1.6 0.45 0.43 0.97 0.77 1.6 1 0.59 0.24 1.2 0.36 1.9 0.36h4.1c0.67 0 1.3-0.12 1.9-0.36 0.61-0.27 1.1-0.61 1.6-1 0.45-0.45 0.8-0.97 1-1.6 0.27-0.61 0.4-1.3 0.4-1.9v-20c0-0.67-0.13-1.3-0.4-1.9-0.24-0.61-0.59-1.1-1-1.6-0.43-0.45-0.95-0.81-1.6-1.1-0.59-0.27-1.2-0.4-1.9-0.4zm0.12 3.2h3.8c0.35 0 0.68 0.13 1 0.4-1.1 2.8-2.1 5.6-3.2 8.4-1 2.8-2.1 5.6-3.2 8.4v-16c0-0.43 0.15-0.79 0.44-1.1 0.29-0.32 0.65-0.48 1.1-0.48zm5.4 5.7v17c0 0.43-0.15 0.79-0.44 1.1-0.27 0.29-0.63 0.44-1.1 0.44h-3.8c-0.51 0-0.92-0.2-1.2-0.6 1.1-2.9 2.2-5.8 3.3-8.7 1.1-2.9 2.2-5.8 3.3-8.7zm-6.9 84v3.2h1v27h3.5v-30zm13 0c-0.69 0-1.3 0.13-1.9 0.4-0.59 0.27-1.1 0.63-1.6 1.1-0.45 0.43-0.81 0.95-1.1 1.6-0.24 0.59-0.36 1.2-0.36 1.9v20c1e-6 0.67 0.12 1.3 0.36 1.9 0.27 0.59 0.63 1.1 1.1 1.6 0.45 0.43 0.97 0.77 1.6 1 0.59 0.24 1.2 0.36 1.9 0.36h4.1c0.67 0 1.3-0.12 1.9-0.36 0.61-0.27 1.1-0.61 1.6-1 0.45-0.45 0.8-0.97 1-1.6 0.27-0.61 0.4-1.3 0.4-1.9v-20c0-0.67-0.13-1.3-0.4-1.9-0.24-0.61-0.59-1.1-1-1.6-0.43-0.45-0.95-0.81-1.6-1.1-0.59-0.27-1.2-0.4-1.9-0.4zm0.12 3.2h3.8c0.35 0 0.68 0.13 1 0.4-1.1 2.8-2.1 5.6-3.2 8.4-1 2.8-2.1 5.6-3.2 8.4v-16c0-0.43 0.15-0.79 0.44-1.1 0.29-0.32 0.65-0.48 1.1-0.48zm5.4 5.7v17c0 0.43-0.15 0.79-0.44 1.1-0.27 0.29-0.63 0.44-1.1 0.44h-3.8c-0.51 0-0.92-0.2-1.2-0.6 1.1-2.9 2.2-5.8 3.3-8.7 1.1-2.9 2.2-5.8 3.3-8.7zm-1.2 69c-0.72 0-1.4 0.13-2 0.4s-1.2 0.64-1.7 1.1c-0.45 0.48-0.83 1-1.1 1.7-0.27 0.61-0.4 1.3-0.4 2v1.7h3.5v-1.7c0-0.51 0.17-0.93 0.52-1.3 0.37-0.37 0.81-0.56 1.3-0.56h2.8c0.53 0 0.97 0.19 1.3 0.56 0.37 0.35 0.56 0.77 0.56 1.3v4.7c0 0.64-0.2 1.2-0.6 1.6-0.37 0.45-0.81 0.85-1.3 1.2l-5 3.4c-0.96 0.69-1.8 1.5-2.4 2.4-0.61 0.91-0.92 2-0.92 3.2v8.5h13v-3.2h-10v-5.4c0-0.67 0.19-1.2 0.56-1.6 0.37-0.45 0.81-0.85 1.3-1.2l5-3.4c0.96-0.69 1.7-1.5 2.4-2.4 0.64-0.91 0.96-2 0.96-3.2v-4.6c0-0.72-0.15-1.4-0.44-2-0.27-0.64-0.64-1.2-1.1-1.7-0.45-0.48-1-0.85-1.6-1.1-0.61-0.27-1.3-0.4-2-0.4zm16 0c-0.69 0-1.3 0.13-1.9 0.4-0.59 0.27-1.1 0.63-1.6 1.1-0.45 0.43-0.81 0.95-1.1 1.6-0.24 0.59-0.36 1.2-0.36 1.9v20c0 0.67 0.12 1.3 0.36 1.9 0.27 0.59 0.63 1.1 1.1 1.6 0.45 0.43 0.97 0.77 1.6 1 0.59 0.24 1.2 0.36 1.9 0.36h4.1c0.67 0 1.3-0.12 1.9-0.36 0.61-0.27 1.1-0.61 1.6-1 0.45-0.45 0.8-0.97 1-1.6 0.27-0.61 0.4-1.3 0.4-1.9v-20c0-0.67-0.13-1.3-0.4-1.9-0.24-0.61-0.59-1.1-1-1.6-0.43-0.45-0.95-0.81-1.6-1.1-0.59-0.27-1.2-0.4-1.9-0.4zm0.12 3.2h3.8c0.35 0 0.68 0.13 1 0.4-1.1 2.8-2.1 5.6-3.2 8.4-1 2.8-2.1 5.6-3.2 8.4v-16c0-0.43 0.15-0.79 0.44-1.1 0.29-0.32 0.65-0.48 1.1-0.48zm5.4 5.7v17c0 0.43-0.15 0.79-0.44 1.1-0.27 0.29-0.63 0.44-1.1 0.44h-3.8c-0.51 0-0.92-0.2-1.2-0.6 1.1-2.9 2.2-5.8 3.3-8.7 1.1-2.9 2.2-5.8 3.3-8.7zm11 65c-0.67 0-1.3 0.13-1.9 0.4-0.59 0.24-1.1 0.59-1.6 1-0.43 0.43-0.77 0.95-1 1.6-0.24 0.59-0.36 1.2-0.36 1.9v2h3.4v-2.1c0-0.43 0.15-0.79 0.44-1.1 0.29-0.29 0.65-0.44 1.1-0.44h4.2c0.43 0 0.79 0.15 1.1 0.44 0.29 0.29 0.44 0.65 0.44 1.1v6.4c0 0.43-0.15 0.79-0.44 1.1-0.29 0.29-0.65 0.44-1.1 0.44h-3.8v3.2h4.3c0.43 0 0.79 0.15 1.1 0.44s0.44 0.65 0.44 1.1v8c0 0.43-0.15 0.79-0.44 1.1-0.29 0.29-0.65 0.44-1.1 0.44h-4.6c-0.43 0-0.79-0.15-1.1-0.44-0.29-0.29-0.44-0.65-0.44-1.1v-2.1h-3.4v2c0 0.67 0.12 1.3 0.36 1.9 0.27 0.59 0.61 1.1 1 1.6 0.45 0.43 0.97 0.77 1.6 1 0.61 0.24 1.3 0.36 1.9 0.36h4.8c0.67 0 1.3-0.12 1.9-0.36 0.61-0.27 1.1-0.61 1.6-1 0.45-0.45 0.8-0.97 1-1.6 0.27-0.61 0.4-1.3 0.4-1.9v-7.8c0-0.69-0.13-1.3-0.4-1.9s-0.64-1.1-1.1-1.6c0.32-0.45 0.57-0.91 0.76-1.4 0.19-0.48 0.28-1 0.28-1.6v-6.2c0-0.67-0.13-1.3-0.4-1.9-0.27-0.61-0.63-1.1-1.1-1.6-0.43-0.45-0.95-0.8-1.6-1-0.59-0.27-1.2-0.4-1.9-0.4zm18 0c-0.69 0-1.3 0.13-1.9 0.4-0.59 0.27-1.1 0.63-1.6 1.1-0.45 0.43-0.81 0.95-1.1 1.6-0.24 0.59-0.36 1.2-0.36 1.9v20c0 0.67 0.12 1.3 0.36 1.9 0.27 0.59 0.63 1.1 1.1 1.6 0.45 0.43 0.97 0.77 1.6 1 0.59 0.24 1.2 0.36 1.9 0.36h4.1c0.67 0 1.3-0.12 1.9-0.36 0.61-0.27 1.1-0.61 1.6-1 0.45-0.45 0.8-0.97 1-1.6 0.27-0.61 0.4-1.3 0.4-1.9v-20c0-0.67-0.13-1.3-0.4-1.9-0.24-0.61-0.59-1.1-1-1.6-0.43-0.45-0.95-0.81-1.6-1.1-0.59-0.27-1.2-0.4-1.9-0.4zm0.12 3.2h3.8c0.35 0 0.68 0.13 1 0.4-1.1 2.8-2.1 5.6-3.2 8.4-1 2.8-2.1 5.6-3.2 8.4v-16c0-0.43 0.15-0.79 0.44-1.1 0.29-0.32 0.65-0.48 1.1-0.48zm5.4 5.7v17c0 0.43-0.15 0.79-0.44 1.1-0.27 0.29-0.63 0.44-1.1 0.44h-3.8c-0.51 0-0.92-0.2-1.2-0.6 1.1-2.9 2.2-5.8 3.3-8.7 1.1-2.9 2.2-5.8 3.3-8.7zm21 57-4.9 21h12v9.4h3.5v-9.4h1v-3.2h-1v-18h-3.5v18h-7.5l4.1-18zm19 0c-0.69 0-1.3 0.13-1.9 0.4-0.59 0.27-1.1 0.63-1.6 1.1-0.45 0.43-0.81 0.95-1.1 1.6-0.24 0.59-0.36 1.2-0.36 1.9v20c0 0.67 0.12 1.3 0.36 1.9 0.27 0.59 0.63 1.1 1.1 1.6 0.45 0.43 0.97 0.77 1.6 1 0.59 0.24 1.2 0.36 1.9 0.36h4.1c0.67 0 1.3-0.12 1.9-0.36 0.61-0.27 1.1-0.61 1.6-1 0.45-0.45 0.8-0.97 1-1.6 0.27-0.61 0.4-1.3 0.4-1.9v-20c0-0.67-0.13-1.3-0.4-1.9-0.24-0.61-0.59-1.1-1-1.6-0.43-0.45-0.95-0.81-1.6-1.1-0.59-0.27-1.2-0.4-1.9-0.4zm0.12 3.2h3.8c0.35 0 0.68 0.13 1 0.4-1.1 2.8-2.1 5.6-3.2 8.4-1 2.8-2.1 5.6-3.2 8.4v-16c0-0.43 0.15-0.79 0.44-1.1 0.29-0.32 0.65-0.48 1.1-0.48zm5.4 5.7v17c0 0.43-0.15 0.79-0.44 1.1-0.27 0.29-0.63 0.44-1.1 0.44h-3.8c-0.51 0-0.92-0.2-1.2-0.6 1.1-2.9 2.2-5.8 3.3-8.7 1.1-2.9 2.2-5.8 3.3-8.7z"/>
 </g>
 <ellipse cx="477" cy="406" rx="399" ry="399" fill="#fff" stroke="#0b0000" stroke-width="14"/>
 <path d="m84 407a392 392 0 0 0 392 391 392 392 0 0 0 392-391z" fill="#f00"/>
 <g transform="translate(-29 -67)">
  <circle cx="505" cy="473" r="349" stroke="#000" stroke-width="2.7"/>
  <path d="m201 214-3.9 4.6 280 235-317-183-3 5.2 317 183-344-125-2.1 5.6 344 125-360-64-1 5.9 360 64h-366v6h366l-360 64 1 5.9 360-64-344 125 2.1 5.6 344-125-317 183 3 5.2 317-183-280 235 3.9 4.6 304-255 304 255 3.9-4.6-280-235 317 183 3-5.2-317-183 344 125 2.1-5.6-344-125 360 64 1-5.9-360-64h366v-6h-366l360-64-1-5.9-360 64 344-125-2.1-5.6-344 125 317-183-3-5.2-317 183 280-235-3.9-4.6-304 255z" stroke-width="0"/>
  <g fill="#fff">
   <path transform="translate(14 67)" d="m432 615v8.6h6.3v63h-6.3v8.6h22v-8.6h-6.4v-63h6.4v-8.6zm28 0v8.7h13v72h9.3v-72h13v-8.7zm54 0c-1.8 0-3.5 0.36-5.1 1.1-1.6 0.64-2.9 1.6-4.2 2.8-1.1 1.1-2.1 2.5-2.8 4.2-0.64 1.6-0.96 3.2-0.96 5v55c0 1.8 0.32 3.5 0.96 5.1 0.71 1.6 1.6 3 2.8 4.2 1.2 1.1 2.6 2.1 4.2 2.8 1.6 0.64 3.3 0.96 5.1 0.96h11c1.8 0 3.4-0.32 4.9-0.96 1.6-0.71 2.9-1.6 4.1-2.8 1.2-1.1 2.2-2.5 2.9-3.9 0.71-1.6 1.1-3.2 1.2-4.9v-5.8h-9.2v6.1c-0.14 1-0.6 1.8-1.4 2.6-0.71 0.71-1.6 1.1-2.6 1.1h-11c-1.1 0-2.1-0.39-2.9-1.2-0.71-0.78-1.1-1.7-1.1-2.9v-55c0-1.1 0.36-2.1 1.1-2.9 0.78-0.78 1.7-1.2 2.9-1.2h11c1 0 1.8 0.36 2.6 1.1 0.78 0.71 1.2 1.6 1.4 2.6v6.1h9.2v-5.8c-0.071-1.7-0.46-3.3-1.2-4.8-0.71-1.6-1.7-2.9-2.9-4.1-1.1-1.1-2.5-2-4.1-2.7-1.5-0.71-3.1-1.1-4.9-1.1zm32 0v81h9.4v-33h18v33h9.3v-81h-9.3v39h-18v-39zm-161 0.11v81h9.4v-25h15c1.8 0 3.4-0.36 5-1.1 1.6-0.78 3-1.8 4.2-3 1.2-1.2 2.1-2.6 2.8-4.2 0.71-1.6 1.1-3.3 1.1-4.9v-30c0-1.8-0.36-3.4-1.1-5-0.64-1.6-1.6-3-2.8-4.2-1.1-1.2-2.5-2.1-4.2-2.8-1.6-0.71-3.2-1.1-5-1.1zm9.4 8.6h14c1.1 0 2.1 0.39 2.8 1.2 0.78 0.78 1.2 1.7 1.2 2.9v30c0 1.1-0.39 2-1.2 2.9-0.71 0.78-1.6 1.2-2.8 1.2h-14z"/>
   <rect x="155" y="470" width="700" height="6" stroke-width="0"/>
   <path transform="translate(14 67)" d="m405 615v81h9.4v-25l3-0.11c2.8 4.1 5.7 8.2 8.4 12l8.3 12h11c-2.8-4.1-5.7-8.2-8.4-12-2.8-4.1-5.6-8.2-8.4-12 1.8-0.071 3.6-0.43 5.3-1.1 1.7-0.64 3.2-1.5 4.5-2.7 1.4-1.1 2.4-2.5 3.2-4.1 0.78-1.6 1.2-3.3 1.2-5.3v-30c0-1.8-0.36-3.4-1.1-5-0.64-1.6-1.6-3-2.8-4.2-1.1-1.2-2.5-2.2-4.2-2.9-1.6-0.71-3.2-1.1-5-1.1zm93 0v81h29v-8.6h-19v-72zm36 0v81h29v-8.6h-19v-72zm-68 0.11c-1.8 0-3.6 0.36-5.1 1.1-1.6 0.64-3 1.6-4.2 2.8-1.2 1.1-2.2 2.5-2.9 4.2-0.64 1.6-0.96 3.2-0.96 5v55c0 1.8 0.32 3.5 0.96 5.1 0.71 1.6 1.7 2.9 2.9 4.2 1.2 1.1 2.6 2.1 4.2 2.8 1.6 0.64 3.3 0.96 5.1 0.96h11c1.8 0 3.4-0.32 5-0.96 1.6-0.71 3-1.6 4.2-2.8 1.2-1.2 2.1-2.6 2.8-4.2 0.71-1.6 1.1-3.3 1.1-5.1v-55c0-1.8-0.36-3.4-1.1-5-0.64-1.6-1.6-3-2.8-4.2-1.1-1.2-2.5-2.1-4.2-2.8-1.6-0.71-3.2-1.1-5-1.1zm-51 8.6h14c1.1 0 2.1 0.39 2.8 1.2 0.78 0.78 1.2 1.7 1.2 2.9v30c0 1.1-0.39 2.1-1.2 2.9-0.71 0.78-1.6 1.2-2.8 1.2h-14zm51 0h10c1.1 0 2.1 0.39 2.9 1.2 0.78 0.78 1.2 1.7 1.2 2.9v55c0 1.1-0.39 2.1-1.2 2.9-0.78 0.78-1.7 1.2-2.9 1.2h-10c-1.1 0-2.1-0.39-2.9-1.2-0.78-0.78-1.2-1.7-1.2-2.9v-55c0-1.1 0.39-2.1 1.2-2.9 0.78-0.78 1.7-1.2 2.9-1.2z"/>
  </g>
 </g>
</svg>
