<svg width="9.8in" height="8.46in" version="1.1" viewBox="0 0 941 812" xmlns="http://www.w3.org/2000/svg">
 <g transform="translate(-14.1 -67.1)" fill="#fff">
  <g stroke-width="0">
   <rect transform="rotate(-30)" x="-249" y="661" width="900" height="4"/>
   <rect transform="rotate(-20)" x="-137" y="616" width="900" height="4"/>
   <rect transform="rotate(-10)" x="-34.5" y="552" width="900" height="4"/>
   <rect transform="rotate(40)" x="241" y="35.7" width="900" height="4"/>
   <rect transform="rotate(30)" x="224" y="155" width="900" height="4"/>
   <rect transform="rotate(20)" x="187" y="270" width="900" height="4"/>
   <rect transform="rotate(10)" x="130" y="376" width="900" height="4"/>
   <rect transform="rotate(-40)" x="-367" y="685" width="900" height="4"/>
   <rect x="55.4" y="471" width="900" height="4"/>
   <rect transform="rotate(35)" x="255" y="95.8" width="860" height="4"/>
   <rect transform="rotate(25)" x="228" y="213" width="860" height="4"/>
   <rect transform="rotate(15)" x="181" y="324" width="860" height="4"/>
   <rect transform="rotate(5)" x="115" y="425" width="860" height="4"/>
   <rect transform="rotate(-35)" x="-287" y="676" width="860" height="4"/>
   <rect transform="rotate(-25)" x="-172" y="641" width="860" height="4"/>
   <rect transform="rotate(-15)" x="-64.3" y="586" width="860" height="4"/>
   <rect transform="rotate(-5)" x="32.2" y="514" width="860" height="4"/>
  </g>
  <path transform="translate(14.1 67.1)" d="m103 73.6-4.92 20.9h12v9.36h3.48v-9.36h1.04v-3.24h-1.04v-17.6h-3.48v17.6h-7.52l4.08-17.6zm19.1 0c-0.693 0-1.33 0.134-1.92 0.4-0.587 0.267-1.11 0.627-1.56 1.08-0.453 0.427-0.813 0.947-1.08 1.56-0.24 0.587-0.359 1.21-0.359 1.88v20.4c0 0.667 0.119 1.31 0.359 1.92 0.267 0.587 0.627 1.11 1.08 1.56 0.453 0.427 0.974 0.772 1.56 1.04 0.587 0.24 1.23 0.359 1.92 0.359h4.12c0.667 0 1.29-0.119 1.88-0.359 0.613-0.267 1.13-0.612 1.56-1.04 0.453-0.453 0.801-0.974 1.04-1.56 0.267-0.613 0.4-1.25 0.4-1.92v-20.4c0-0.667-0.134-1.29-0.4-1.88-0.24-0.613-0.588-1.13-1.04-1.56-0.427-0.453-0.945-0.813-1.56-1.08-0.587-0.267-1.21-0.4-1.88-0.4zm0.119 3.24h3.84c0.347 0 0.68 0.134 1 0.4-1.07 2.83-2.13 5.64-3.2 8.44-1.04 2.8-2.09 5.61-3.16 8.44v-15.7c0-0.427 0.146-0.787 0.439-1.08 0.293-0.32 0.653-0.48 1.08-0.48zm5.36 5.72v16.5c0 0.427-0.146 0.787-0.439 1.08-0.267 0.293-0.627 0.439-1.08 0.439h-3.84c-0.507 0-0.92-0.2-1.24-0.6 1.12-2.91 2.21-5.81 3.28-8.72 1.09-2.91 2.2-5.81 3.32-8.72zm-73.4 56.2c-0.667 0-1.31 0.134-1.92 0.4-0.587 0.24-1.11 0.586-1.56 1.04-0.427 0.427-0.772 0.947-1.04 1.56-0.24 0.587-0.361 1.21-0.361 1.88v2h3.36v-2.12c0-0.427 0.146-0.787 0.439-1.08 0.293-0.293 0.653-0.439 1.08-0.439h4.2c0.427 0 0.787 0.146 1.08 0.439 0.293 0.293 0.439 0.653 0.439 1.08v6.44c0 0.427-0.146 0.787-0.439 1.08-0.293 0.293-0.653 0.441-1.08 0.441h-3.84v3.24h4.32c0.427 0 0.787 0.148 1.08 0.441 0.293 0.293 0.439 0.653 0.439 1.08v8c0 0.427-0.146 0.787-0.439 1.08-0.293 0.293-0.653 0.439-1.08 0.439h-4.6c-0.427 0-0.787-0.146-1.08-0.439-0.293-0.293-0.441-0.653-0.441-1.08v-2.12h-3.36v2c0 0.667 0.119 1.31 0.359 1.92 0.267 0.587 0.614 1.11 1.04 1.56 0.453 0.427 0.974 0.772 1.56 1.04 0.613 0.24 1.25 0.361 1.92 0.361h4.76c0.667 0 1.29-0.121 1.88-0.361 0.613-0.267 1.13-0.612 1.56-1.04 0.453-0.453 0.801-0.974 1.04-1.56 0.267-0.613 0.398-1.25 0.398-1.92v-7.84c0-0.693-0.132-1.32-0.398-1.88-0.267-0.56-0.641-1.09-1.12-1.6 0.32-0.453 0.573-0.906 0.76-1.36 0.187-0.48 0.281-1 0.281-1.56v-6.24c0-0.667-0.134-1.29-0.4-1.88-0.267-0.613-0.627-1.13-1.08-1.56-0.427-0.453-0.947-0.799-1.56-1.04-0.587-0.267-1.21-0.4-1.88-0.4zm17.7 0c-0.693 0-1.33 0.134-1.92 0.4-0.587 0.267-1.11 0.627-1.56 1.08-0.453 0.427-0.813 0.945-1.08 1.56-0.24 0.587-0.361 1.21-0.361 1.88v20.4c0 0.667 0.121 1.31 0.361 1.92 0.267 0.587 0.627 1.11 1.08 1.56 0.453 0.427 0.972 0.772 1.56 1.04 0.587 0.24 1.23 0.361 1.92 0.361h4.12c0.667 0 1.29-0.121 1.88-0.361 0.613-0.267 1.13-0.612 1.56-1.04 0.453-0.453 0.801-0.974 1.04-1.56 0.267-0.613 0.398-1.25 0.398-1.92v-20.4c0-0.667-0.132-1.29-0.398-1.88-0.24-0.613-0.588-1.13-1.04-1.56-0.427-0.453-0.947-0.813-1.56-1.08-0.587-0.267-1.21-0.4-1.88-0.4zm0.121 3.24h3.84c0.347 0 0.68 0.134 1 0.4-1.07 2.83-2.13 5.64-3.2 8.44-1.04 2.8-2.09 5.61-3.16 8.44v-15.7c0-0.427 0.146-0.785 0.439-1.08 0.293-0.32 0.653-0.48 1.08-0.48zm5.36 5.72v16.5c0 0.427-0.146 0.787-0.439 1.08-0.267 0.293-0.627 0.439-1.08 0.439h-3.84c-0.507 0-0.92-0.2-1.24-0.6 1.12-2.91 2.21-5.81 3.28-8.72 1.09-2.91 2.2-5.81 3.32-8.72zm-58.2 74.9c-0.72 0-1.4 0.134-2.04 0.4-0.64 0.267-1.2 0.641-1.68 1.12-0.453 0.48-0.828 1.04-1.12 1.68-0.267 0.613-0.398 1.28-0.398 2v1.68h3.52v-1.68c0-0.507 0.173-0.935 0.52-1.28 0.373-0.373 0.814-0.559 1.32-0.559h2.84c0.533 0 0.974 0.185 1.32 0.559 0.373 0.347 0.561 0.775 0.561 1.28v4.72c0 0.64-0.202 1.19-0.602 1.64-0.373 0.453-0.814 0.855-1.32 1.2l-5 3.4c-0.96 0.693-1.76 1.49-2.4 2.4-0.613 0.907-0.92 1.97-0.92 3.2v8.48h13.5v-3.24h-9.96v-5.36c0-0.667 0.187-1.21 0.561-1.64 0.373-0.453 0.812-0.853 1.32-1.2l5-3.44c0.96-0.693 1.75-1.48 2.36-2.36 0.64-0.907 0.959-1.97 0.959-3.2v-4.6c0-0.72-0.146-1.39-0.439-2-0.267-0.64-0.639-1.2-1.12-1.68-0.453-0.48-1-0.854-1.64-1.12-0.613-0.267-1.28-0.4-2-0.4zm16.4 0c-0.693 0-1.33 0.134-1.92 0.4-0.587 0.267-1.11 0.627-1.56 1.08-0.453 0.427-0.813 0.947-1.08 1.56-0.24 0.587-0.359 1.21-0.359 1.88v20.4c0 0.667 0.119 1.31 0.359 1.92 0.267 0.587 0.627 1.11 1.08 1.56 0.453 0.427 0.974 0.774 1.56 1.04 0.587 0.24 1.23 0.359 1.92 0.359h4.12c0.667 0 1.29-0.119 1.88-0.359 0.613-0.267 1.13-0.614 1.56-1.04 0.453-0.453 0.801-0.972 1.04-1.56 0.267-0.613 0.4-1.25 0.4-1.92v-20.4c0-0.667-0.134-1.29-0.4-1.88-0.24-0.613-0.588-1.13-1.04-1.56-0.427-0.453-0.945-0.813-1.56-1.08-0.587-0.267-1.21-0.4-1.88-0.4zm0.119 3.24h3.84c0.347 0 0.68 0.134 1 0.4-1.07 2.83-2.13 5.64-3.2 8.44-1.04 2.8-2.09 5.61-3.16 8.44v-15.7c0-0.427 0.146-0.787 0.439-1.08 0.293-0.32 0.653-0.48 1.08-0.48zm5.36 5.72v16.5c0 0.427-0.148 0.787-0.441 1.08-0.267 0.293-0.627 0.439-1.08 0.439h-3.84c-0.507 0-0.92-0.2-1.24-0.6 1.12-2.91 2.21-5.81 3.28-8.72 1.09-2.91 2.2-5.81 3.32-8.72zm-39.5 72.9v3.24h1.04v27h3.52v-30.2zm12.6 0c-0.693 0-1.33 0.134-1.92 0.4-0.587 0.267-1.11 0.627-1.56 1.08-0.453 0.427-0.813 0.945-1.08 1.56-0.24 0.587-0.359 1.21-0.359 1.88v20.4c0 0.667 0.119 1.31 0.359 1.92 0.267 0.587 0.627 1.11 1.08 1.56 0.453 0.427 0.974 0.772 1.56 1.04 0.587 0.24 1.23 0.361 1.92 0.361h4.12c0.667 0 1.29-0.121 1.88-0.361 0.613-0.267 1.13-0.612 1.56-1.04 0.453-0.453 0.801-0.974 1.04-1.56 0.267-0.613 0.4-1.25 0.4-1.92v-20.4c0-0.667-0.134-1.29-0.4-1.88-0.24-0.613-0.588-1.13-1.04-1.56-0.427-0.453-0.945-0.813-1.56-1.08-0.587-0.267-1.21-0.4-1.88-0.4zm0.119 3.24h3.84c0.347 0 0.68 0.132 1 0.398-1.07 2.83-2.13 5.64-3.2 8.44-1.04 2.8-2.09 5.61-3.16 8.44v-15.7c0-0.427 0.146-0.787 0.439-1.08 0.293-0.32 0.653-0.479 1.08-0.479zm5.36 5.72v16.5c0 0.427-0.146 0.785-0.439 1.08-0.267 0.293-0.627 0.441-1.08 0.441h-3.84c-0.507 0-0.92-0.2-1.24-0.6 1.12-2.91 2.21-5.81 3.28-8.72 1.09-2.91 2.2-5.81 3.32-8.72zm-9.64 77.9c-0.693 0-1.33 0.132-1.92 0.398-0.587 0.267-1.11 0.627-1.56 1.08-0.453 0.427-0.813 0.947-1.08 1.56-0.24 0.587-0.359 1.21-0.359 1.88v20.4c0 0.667 0.119 1.31 0.359 1.92 0.267 0.587 0.627 1.11 1.08 1.56 0.453 0.427 0.974 0.772 1.56 1.04 0.587 0.24 1.23 0.361 1.92 0.361h4.12c0.667 0 1.29-0.121 1.88-0.361 0.613-0.267 1.13-0.612 1.56-1.04 0.453-0.453 0.801-0.974 1.04-1.56 0.267-0.613 0.4-1.25 0.4-1.92v-20.4c0-0.667-0.134-1.29-0.4-1.88-0.24-0.613-0.588-1.13-1.04-1.56-0.427-0.453-0.945-0.813-1.56-1.08-0.587-0.267-1.21-0.398-1.88-0.398zm0.119 3.24h3.84c0.347 0 0.68 0.132 1 0.398-1.07 2.83-2.13 5.64-3.2 8.44-1.04 2.8-2.09 5.61-3.16 8.44v-15.7c0-0.427 0.146-0.787 0.439-1.08 0.293-0.32 0.653-0.479 1.08-0.479zm5.36 5.72v16.5c0 0.427-0.146 0.787-0.439 1.08-0.267 0.293-0.627 0.441-1.08 0.441h-3.84c-0.507 0-0.92-0.202-1.24-0.602 1.12-2.91 2.21-5.81 3.28-8.72 1.09-2.91 2.2-5.81 3.32-8.72zm-15.6 74.2v3.24h1.04v27h3.52v-30.2zm12.6 0c-0.693 0-1.33 0.134-1.92 0.4-0.587 0.267-1.11 0.627-1.56 1.08-0.453 0.427-0.813 0.945-1.08 1.56-0.24 0.587-0.359 1.21-0.359 1.88v20.4c0 0.667 0.119 1.31 0.359 1.92 0.267 0.587 0.627 1.11 1.08 1.56 0.453 0.427 0.974 0.772 1.56 1.04 0.587 0.24 1.23 0.361 1.92 0.361h4.12c0.667 0 1.29-0.121 1.88-0.361 0.613-0.267 1.13-0.612 1.56-1.04 0.453-0.453 0.801-0.974 1.04-1.56 0.267-0.613 0.4-1.25 0.4-1.92v-20.4c0-0.667-0.134-1.29-0.4-1.88-0.24-0.613-0.588-1.13-1.04-1.56-0.427-0.453-0.945-0.813-1.56-1.08-0.587-0.267-1.21-0.4-1.88-0.4zm0.119 3.24h3.84c0.347 0 0.68 0.134 1 0.4-1.07 2.83-2.13 5.64-3.2 8.44-1.04 2.8-2.09 5.61-3.16 8.44v-15.7c0-0.427 0.146-0.787 0.439-1.08 0.293-0.32 0.653-0.479 1.08-0.479zm5.36 5.72v16.5c0 0.427-0.146 0.787-0.439 1.08-0.267 0.293-0.627 0.439-1.08 0.439h-3.84c-0.507 0-0.92-0.2-1.24-0.6 1.12-2.91 2.21-5.81 3.28-8.72 1.09-2.91 2.2-5.81 3.32-8.72zm-7.35 74.9c-0.72 0-1.4 0.134-2.04 0.4-0.64 0.267-1.2 0.641-1.68 1.12-0.453 0.48-0.826 1.04-1.12 1.68-0.267 0.613-0.4 1.28-0.4 2v1.68h3.52v-1.68c0-0.507 0.173-0.935 0.52-1.28 0.373-0.373 0.814-0.559 1.32-0.559h2.84c0.533 0 0.974 0.185 1.32 0.559 0.373 0.347 0.561 0.775 0.561 1.28v4.72c0 0.64-0.2 1.19-0.6 1.64-0.373 0.453-0.814 0.854-1.32 1.2l-5 3.4c-0.96 0.693-1.76 1.49-2.4 2.4-0.613 0.907-0.92 1.97-0.92 3.2v8.48h13.5v-3.24h-9.96v-5.36c0-0.667 0.187-1.21 0.561-1.64 0.373-0.453 0.814-0.853 1.32-1.2l5-3.44c0.96-0.693 1.75-1.48 2.36-2.36 0.64-0.907 0.959-1.97 0.959-3.2v-4.6c0-0.72-0.146-1.39-0.439-2-0.267-0.64-0.639-1.2-1.12-1.68-0.453-0.48-1-0.854-1.64-1.12-0.613-0.267-1.28-0.4-2-0.4zm16.4 0c-0.693 0-1.33 0.134-1.92 0.4-0.587 0.267-1.11 0.627-1.56 1.08-0.453 0.427-0.813 0.947-1.08 1.56-0.24 0.587-0.359 1.21-0.359 1.88v20.4c0 0.667 0.119 1.31 0.359 1.92 0.267 0.587 0.627 1.11 1.08 1.56 0.453 0.427 0.974 0.774 1.56 1.04 0.587 0.24 1.23 0.359 1.92 0.359h4.12c0.667 0 1.29-0.119 1.88-0.359 0.613-0.267 1.13-0.614 1.56-1.04 0.453-0.453 0.799-0.972 1.04-1.56 0.267-0.613 0.4-1.25 0.4-1.92v-20.4c0-0.667-0.134-1.29-0.4-1.88-0.24-0.613-0.586-1.13-1.04-1.56-0.427-0.453-0.947-0.813-1.56-1.08-0.587-0.267-1.21-0.4-1.88-0.4zm0.119 3.24h3.84c0.347 0 0.68 0.134 1 0.4-1.07 2.83-2.13 5.64-3.2 8.44-1.04 2.8-2.09 5.61-3.16 8.44v-15.7c0-0.427 0.146-0.787 0.439-1.08 0.293-0.32 0.653-0.48 1.08-0.48zm5.36 5.72v16.5c0 0.427-0.148 0.787-0.441 1.08-0.267 0.293-0.627 0.439-1.08 0.439h-3.84c-0.507 0-0.918-0.2-1.24-0.6 1.12-2.91 2.21-5.81 3.28-8.72 1.09-2.91 2.2-5.81 3.32-8.72zm18 67c-0.667 1e-5 -1.31 0.134-1.92 0.4-0.587 0.24-1.11 0.586-1.56 1.04-0.427 0.427-0.774 0.947-1.04 1.56-0.24 0.587-0.359 1.21-0.359 1.88v2h3.36v-2.12c0-0.427 0.148-0.787 0.441-1.08 0.293-0.293 0.653-0.439 1.08-0.439h4.2c0.427 0 0.787 0.146 1.08 0.439 0.293 0.293 0.439 0.653 0.439 1.08v6.44c0 0.427-0.146 0.787-0.439 1.08-0.293 0.293-0.653 0.441-1.08 0.441h-3.84v3.24h4.32c0.427 0 0.787 0.146 1.08 0.439 0.293 0.293 0.439 0.653 0.439 1.08v8c0 0.427-0.146 0.787-0.439 1.08-0.293 0.293-0.653 0.439-1.08 0.439h-4.6c-0.427 1e-5 -0.785-0.146-1.08-0.439-0.293-0.293-0.441-0.653-0.441-1.08v-2.12h-3.36v2c0 0.667 0.119 1.31 0.359 1.92 0.267 0.587 0.614 1.11 1.04 1.56 0.453 0.427 0.972 0.774 1.56 1.04 0.613 0.24 1.25 0.359 1.92 0.359h4.76c0.667 0 1.29-0.119 1.88-0.359 0.613-0.267 1.13-0.614 1.56-1.04 0.453-0.453 0.799-0.974 1.04-1.56 0.267-0.613 0.4-1.25 0.4-1.92v-7.84c0-0.693-0.134-1.32-0.4-1.88-0.267-0.56-0.639-1.09-1.12-1.6 0.32-0.453 0.573-0.908 0.76-1.36 0.187-0.48 0.279-1 0.279-1.56v-6.24c0-0.667-0.132-1.29-0.398-1.88-0.267-0.613-0.627-1.13-1.08-1.56-0.427-0.453-0.947-0.799-1.56-1.04-0.587-0.267-1.21-0.4-1.88-0.4zm17.7 0c-0.693 1e-5 -1.33 0.134-1.92 0.4-0.587 0.267-1.11 0.627-1.56 1.08-0.453 0.427-0.813 0.947-1.08 1.56-0.24 0.587-0.359 1.21-0.359 1.88v20.4c-1e-6 0.667 0.119 1.31 0.359 1.92 0.267 0.587 0.627 1.11 1.08 1.56 0.453 0.427 0.974 0.774 1.56 1.04 0.587 0.24 1.23 0.359 1.92 0.359h4.12c0.667 0 1.29-0.119 1.88-0.359 0.613-0.267 1.13-0.614 1.56-1.04 0.453-0.453 0.799-0.974 1.04-1.56 0.267-0.613 0.4-1.25 0.4-1.92v-20.4c0-0.667-0.134-1.29-0.4-1.88-0.24-0.613-0.586-1.13-1.04-1.56-0.427-0.453-0.947-0.813-1.56-1.08-0.587-0.267-1.21-0.4-1.88-0.4zm0.121 3.24h3.84c0.347 0 0.68 0.134 1 0.4-1.07 2.83-2.13 5.64-3.2 8.44-1.04 2.8-2.09 5.61-3.16 8.44v-15.7c0-0.427 0.148-0.787 0.441-1.08 0.293-0.32 0.653-0.48 1.08-0.48zm5.36 5.72v16.5c0 0.427-0.146 0.787-0.439 1.08-0.267 0.293-0.627 0.439-1.08 0.439h-3.84c-0.507 1e-5 -0.92-0.2-1.24-0.6 1.12-2.91 2.21-5.81 3.28-8.72 1.09-2.91 2.2-5.81 3.32-8.72zm18.7 61.1-4.92 20.9h12v9.36h3.48v-9.36h1.04v-3.24h-1.04v-17.6h-3.48v17.6h-7.52l4.08-17.6zm19.1 0c-0.693 0-1.33 0.134-1.92 0.4-0.587 0.267-1.11 0.627-1.56 1.08-0.453 0.427-0.813 0.947-1.08 1.56-0.24 0.587-0.359 1.21-0.359 1.88v20.4c0 0.667 0.119 1.31 0.359 1.92 0.267 0.587 0.627 1.11 1.08 1.56 0.453 0.427 0.974 0.774 1.56 1.04 0.587 0.24 1.23 0.359 1.92 0.359h4.12c0.667 0 1.29-0.119 1.88-0.359 0.613-0.267 1.13-0.614 1.56-1.04 0.453-0.453 0.801-0.974 1.04-1.56 0.267-0.613 0.4-1.25 0.4-1.92v-20.4c0-0.667-0.134-1.29-0.4-1.88-0.24-0.613-0.588-1.13-1.04-1.56-0.427-0.453-0.945-0.813-1.56-1.08-0.587-0.267-1.21-0.4-1.88-0.4zm0.119 3.24h3.84c0.347 0 0.68 0.134 1 0.4-1.07 2.83-2.13 5.64-3.2 8.44-1.04 2.8-2.09 5.61-3.16 8.44v-15.7c0-0.427 0.146-0.787 0.439-1.08 0.293-0.32 0.653-0.48 1.08-0.48zm5.36 5.72v16.5c0 0.427-0.146 0.787-0.439 1.08-0.267 0.293-0.627 0.439-1.08 0.439h-3.84c-0.507 0-0.92-0.2-1.24-0.6 1.12-2.91 2.21-5.81 3.28-8.72 1.09-2.91 2.2-5.81 3.32-8.72z"/>
 </g>
 <circle cx="491" cy="406" r="399" fill="#fff" stroke="#0b0000" stroke-width="14"/>
 <path d="m99.1 407a392 392 0 0 0 392 391 392 392 0 0 0 392-391z" fill="#f00"/>
 <g transform="translate(-14.1 -67.1)">
  <circle cx="505" cy="473" r="349" stroke="#000" stroke-width="2.66"/>
  <path d="m950 1034a398 401 52.3 0 1-400 402 398 401 52.3 0 1-400-396 398 401 52.3 0 1 400-402 398 401 52.3 0 1 400 396zm-50.6 0.38a348 350 52.3 0 1-349 351 348 350 52.3 0 1-349-346 348 350 52.3 0 1 349-351 348 350 52.3 0 1 349 346z" display="none" fill="#fff" fill-rule="evenodd"/>
  <g transform="translate(-51.3 -564)" stroke-width="0">
   <rect transform="rotate(-40)" x="-645" y="1145" width="800" height="6"/>
   <rect transform="rotate(-30)" x="-442" y="1171" width="800" height="6"/>
   <rect transform="rotate(-20)" x="-238" y="1160" width="800" height="6"/>
   <rect transform="rotate(-10)" x="-38.1" y="1114" width="800" height="6"/>
   <rect transform="rotate(40)" x="688" y="438" width="800" height="6"/>
   <rect transform="rotate(30)" x="595" y="620" width="800" height="6"/>
   <rect transform="rotate(20)" x="472" y="784" width="800" height="6"/>
   <rect transform="rotate(10)" x="322" y="923" width="800" height="6"/>
   <rect x="150" y="1034" width="800" height="6"/>
  </g>
  <path transform="translate(14.1 67.1)" d="m413 615v80.6h9.39v-24.6l2.99-0.107c2.84 4.12 5.65 8.25 8.43 12.4l8.32 12.4h10.7c-2.84-4.12-5.65-8.25-8.43-12.4-2.77-4.12-5.58-8.25-8.43-12.4 1.85-0.0711 3.63-0.426 5.33-1.07 1.71-0.64 3.2-1.53 4.48-2.67 1.35-1.14 2.42-2.49 3.2-4.05 0.782-1.56 1.17-3.34 1.17-5.33v-29.7c0-1.78-0.357-3.45-1.07-5.01-0.64-1.64-1.56-3.02-2.77-4.16-1.14-1.21-2.52-2.17-4.16-2.88-1.56-0.711-3.24-1.07-5.01-1.07zm92.7 0v80.6h28.6v-8.64h-19.2v-72zm35.7 0v80.6h28.6v-8.64h-19.2v-72zm-68.5 0.107c-1.85 0-3.56 0.355-5.12 1.07-1.56 0.64-2.95 1.56-4.16 2.77-1.21 1.14-2.17 2.52-2.88 4.16-0.64 1.56-0.961 3.23-0.961 5.01v54.5c0 1.78 0.321 3.48 0.961 5.12 0.711 1.56 1.67 2.95 2.88 4.16 1.21 1.14 2.6 2.06 4.16 2.77 1.56 0.64 3.27 0.961 5.12 0.961h11c1.78 0 3.45-0.321 5.01-0.961 1.64-0.711 3.02-1.64 4.16-2.77 1.21-1.21 2.13-2.6 2.77-4.16 0.711-1.64 1.07-3.34 1.07-5.12v-54.5c0-1.78-0.355-3.45-1.07-5.01-0.64-1.64-1.56-3.02-2.77-4.16-1.14-1.21-2.52-2.13-4.16-2.77-1.56-0.711-3.24-1.07-5.01-1.07zm-50.6 8.64h14.4c1.14 0 2.06 0.392 2.77 1.17 0.782 0.782 1.17 1.74 1.17 2.88v30.4c0 1.14-0.392 2.1-1.17 2.88-0.711 0.782-1.64 1.17-2.77 1.17h-14.4zm50.9 0h10.2c1.14 0 2.1 0.392 2.88 1.17 0.782 0.782 1.17 1.74 1.17 2.88v55.1c0 1.14-0.392 2.1-1.17 2.88-0.782 0.782-1.74 1.17-2.88 1.17h-10.2c-1.14 0-2.1-0.392-2.88-1.17-0.782-0.782-1.17-1.74-1.17-2.88v-55.1c0-1.14 0.392-2.1 1.17-2.88 0.782-0.782 1.74-1.17 2.88-1.17z" fill="#fff" style="shape-inside:url(#rect6584);white-space:pre"/>
  <rect x="155" y="470" width="700" height="6" fill="#fff" stroke-width="0"/>
 </g>
</svg>
