<?xml version="1.0" encoding="UTF-8" standalone="no"?>
<!-- Created with Inkscape (http://www.inkscape.org/) -->

<svg
   width="9.9364624in"
   height="8.462533in"
   viewBox="0 0 953.90039 812.40317"
   version="1.1"
   id="svg5"
   inkscape:version="1.1.1 (3bf5ae0d25, 2021-09-20)"
   sodipodi:docname="gauge.svg"
   xmlns:inkscape="http://www.inkscape.org/namespaces/inkscape"
   xmlns:sodipodi="http://sodipodi.sourceforge.net/DTD/sodipodi-0.dtd"
   xmlns="http://www.w3.org/2000/svg"
   xmlns:svg="http://www.w3.org/2000/svg">
  <sodipodi:namedview
     id="namedview7"
     pagecolor="#777777"
     bordercolor="#666666"
     borderopacity="1.0"
     inkscape:pageshadow="2"
     inkscape:pageopacity="0"
     inkscape:pagecheckerboard="true"
     inkscape:document-units="px"
     showgrid="false"
     inkscape:zoom="1.0136358"
     inkscape:cx="504.61911"
     inkscape:cy="353.67733"
     inkscape:window-width="2560"
     inkscape:window-height="1377"
     inkscape:window-x="2552"
     inkscape:window-y="-8"
     inkscape:window-maximized="1"
     inkscape:current-layer="layer3"
     units="in"
     inkscape:showpageshadow="false"
     showborder="true"
     fit-margin-top="0"
     fit-margin-left="0"
     fit-margin-right="0"
     fit-margin-bottom="0" />
  <defs
     id="defs2">
    <rect
       x="305.82977"
       y="541.61462"
       width="403.49799"
       height="149.95525"
       id="rect6584" />
  </defs>
  <g
     inkscape:groupmode="layer"
     id="layer3"
     inkscape:label="External Scale"
     style="display:inline"
     transform="translate(-28.77101,-67.095154)">
    <path
       id="rect7593-8"
       style="display:inline;fill:#ffffff;fill-opacity:1;stroke:#0b0000;stroke-width:0;stroke-miterlimit:4;stroke-dasharray:none;stroke-opacity:1"
       inkscape:label="Scale"
       d="m 147.80469,115.41602 -2.57031,3.0625 309.64062,259.81836 -314.72461,-220.3711 -2.29297,3.27539 314.70703,220.36133 -350.03711,-202.09375 -2,3.46484 350.05274,202.10352 -348.20703,-162.37305 -1.69141,3.625 L 448.87305,388.6543 69.0625,250.41406 67.693359,254.17188 447.51172,392.41406 76.408203,292.97852 75.373047,296.8418 446.47461,396.27734 48.423828,326.08984 47.728516,330.0293 445.78125,400.2168 63.050781,366.73242 62.701172,370.7168 445.42969,404.20117 H 41.240234 v 4 H 445.42969 l -382.728518,33.48438 0.349609,3.98633 382.708989,-33.48243 -398.031254,70.1836 0.695312,3.93945 L 446.49609,416.12109 75.373047,515.5625 76.408203,519.42578 447.50586,419.99023 67.693359,558.23047 69.0625,561.99023 448.87305,423.75 100.68164,586.11523 l 1.69141,3.625 348.17968,-162.35937 -350.02539,202.08789 2,3.46484 350.05078,-202.10156 -314.7207,220.36914 2.29297,3.27735 314.72656,-220.375 -309.64257,259.82031 2.57031,3.06445 343.43554,-288.17578 343.4336,288.17578 2.57031,-3.06445 -309.63281,-259.8125 314.71679,220.36719 2.29297,-3.27735 -314.7207,-220.36914 350.05078,202.10156 2,-3.46484 -350.02539,-202.08789 348.17969,162.35937 1.69141,-3.625 -348.20118,-162.36914 379.82032,138.24414 1.36914,-3.75976 -379.80664,-138.23828 371.09179,99.43359 1.03516,-3.86328 -371.12305,-99.44141 398.07227,70.19141 0.69531,-3.93945 -398.03125,-70.1836 382.71094,33.48243 0.34765,-3.98633 -382.72461,-33.48438 h 404.1875 v -4 H 537.05273 L 919.77734,370.7168 919.42969,366.73242 536.69141,400.2168 934.75,330.0293 l -0.69531,-3.93946 -398.03321,70.1836 371.08399,-99.43164 -1.03516,-3.86328 -371.10742,99.4375 379.82227,-138.24414 -1.36914,-3.75782 -379.81836,138.24219 348.19922,-162.36719 -1.69141,-3.625 -348.18945,162.36328 350.03515,-202.09375 -2,-3.46484 -350.04687,202.09961 314.71679,-220.36719 -2.29297,-3.27539 -314.73437,220.38086 309.65039,-259.82812 -2.57031,-3.0625 -343.43555,288.17578 z"
       transform="translate(14.147963,67.095154)" />
    <path
       id="text7872"
       style="font-size:40px;line-height:1.25;font-family:'Autobus Bold';-inkscape-font-specification:'Autobus Bold, '"
       d="m 842.13672,86.257812 -4.92188,20.880858 h 11.96094 v 9.35938 h 3.48047 v -9.35938 h 1.03906 v -3.24023 h -1.03906 V 86.257812 h -3.48047 v 17.640628 h -7.51953 l 4.08008,-17.640628 z m 19.11914,0 c -0.69333,0 -1.33326,0.133724 -1.91992,0.400391 -0.58667,0.266667 -1.10722,0.626745 -1.56055,1.080078 -0.45333,0.426667 -0.81341,0.947214 -1.08008,1.560547 -0.24,0.586667 -0.35937,1.21224 -0.35937,1.878906 v 20.441406 c 0,0.66667 0.11937,1.30659 0.35937,1.91992 0.26667,0.58667 0.62675,1.10526 1.08008,1.5586 0.45333,0.42666 0.97388,0.77435 1.56055,1.04101 0.58666,0.24 1.22659,0.35938 1.91992,0.35938 h 4.11914 c 0.66667,0 1.29419,-0.11938 1.88086,-0.35938 0.61333,-0.26666 1.13388,-0.61435 1.56055,-1.04101 0.45333,-0.45334 0.79906,-0.97193 1.03906,-1.5586 0.26667,-0.61333 0.40039,-1.25325 0.40039,-1.91992 V 91.177734 c 0,-0.666666 -0.13372,-1.292239 -0.40039,-1.878906 -0.24,-0.613333 -0.58573,-1.13388 -1.03906,-1.560547 -0.42667,-0.453333 -0.94722,-0.813411 -1.56055,-1.080078 -0.58667,-0.266667 -1.21419,-0.400391 -1.88086,-0.400391 z m 0.11914,3.240235 h 3.83984 c 0.34667,0 0.68,0.133724 1,0.400391 -1.06666,2.826666 -2.13255,5.639453 -3.19922,8.439453 -1.04,2.799999 -2.09348,5.612789 -3.16015,8.439449 V 91.058594 c 0,-0.426667 0.14612,-0.786745 0.43945,-1.080078 0.29334,-0.32 0.65341,-0.480469 1.08008,-0.480469 z m 5.36133,5.720703 v 16.51953 c 0,0.42667 -0.14807,0.78675 -0.44141,1.08008 -0.26666,0.29333 -0.62674,0.43945 -1.08008,0.43945 H 861.375 c -0.50667,0 -0.91828,-0.19961 -1.23828,-0.59961 1.12,-2.90666 2.21263,-5.81403 3.2793,-8.7207 1.09333,-2.90667 2.20031,-5.812083 3.32031,-8.71875 z m 23.18164,53.47461 c -0.66667,0 -1.30659,0.13372 -1.91992,0.40039 -0.58667,0.24 -1.10722,0.58573 -1.56055,1.03906 -0.42667,0.42667 -0.7724,0.94722 -1.03906,1.56055 -0.24,0.58667 -0.36133,1.21224 -0.36133,1.87891 v 2 h 3.36133 v -2.11915 c 0,-0.42666 0.14612,-0.78674 0.43945,-1.08007 0.29333,-0.29334 0.65341,-0.43946 1.08008,-0.43946 h 4.19922 c 0.42666,0 0.78674,0.14612 1.08008,0.43946 0.29333,0.29333 0.4414,0.65341 0.4414,1.08007 v 6.43946 c 0,0.42666 -0.14807,0.78674 -0.4414,1.08008 -0.29334,0.29333 -0.65342,0.43945 -1.08008,0.43945 h -3.83985 v 3.24023 h 4.32032 c 0.42666,0 0.78674,0.14808 1.08007,0.44141 0.29334,0.29333 0.43946,0.65341 0.43946,1.08008 v 8 c 0,0.42666 -0.14612,0.78674 -0.43946,1.08008 -0.29333,0.29333 -0.65341,0.43945 -1.08007,0.43945 h -4.59961 c -0.42667,0 -0.78675,-0.14612 -1.08008,-0.43945 -0.29333,-0.29334 -0.43945,-0.65342 -0.43945,-1.08008 v -2.1211 h -3.36133 v 2 c 0,0.66667 0.12133,1.30659 0.36133,1.91993 0.26666,0.58666 0.61239,1.10721 1.03906,1.56054 0.45333,0.42667 0.97388,0.7724 1.56054,1.03907 0.61334,0.24 1.25326,0.36132 1.91993,0.36132 h 4.75976 c 0.66667,0 1.2942,-0.12132 1.88086,-0.36132 0.61334,-0.26667 1.13193,-0.6124 1.5586,-1.03907 0.45333,-0.45333 0.80101,-0.97388 1.04101,-1.56054 0.26667,-0.61334 0.40039,-1.25326 0.40039,-1.91993 v -7.83984 c 0,-0.69333 -0.13372,-1.32086 -0.40039,-1.88086 -0.26667,-0.56 -0.64109,-1.09294 -1.12109,-1.59961 0.32,-0.45333 0.5731,-0.90604 0.75976,-1.35937 0.18667,-0.48 0.28125,-1.00055 0.28125,-1.56055 v -6.24023 c 0,-0.66667 -0.13372,-1.29224 -0.40039,-1.87891 -0.26666,-0.61333 -0.62674,-1.13388 -1.08008,-1.56055 -0.42666,-0.45333 -0.94721,-0.79906 -1.56054,-1.03906 -0.58667,-0.26667 -1.21224,-0.40039 -1.87891,-0.40039 z m 17.7207,0 c -0.69333,0 -1.33325,0.13372 -1.91992,0.40039 -0.58667,0.26667 -1.10721,0.62674 -1.56055,1.08008 -0.45333,0.42666 -0.81341,0.94526 -1.08008,1.55859 -0.23999,0.58667 -0.35937,1.21419 -0.35937,1.88086 v 20.43945 c 0,0.66667 0.11937,1.30659 0.35937,1.91993 0.26667,0.58666 0.62675,1.10721 1.08008,1.56054 0.45334,0.42667 0.97388,0.7724 1.56055,1.03907 0.58667,0.24 1.22659,0.36132 1.91992,0.36132 h 4.11914 c 0.66667,0 1.2942,-0.12132 1.88086,-0.36132 0.61334,-0.26667 1.13193,-0.6124 1.5586,-1.03907 0.45333,-0.45333 0.80101,-0.97388 1.04101,-1.56054 0.26667,-0.61334 0.40039,-1.25326 0.40039,-1.91993 v -20.43945 c 0,-0.66667 -0.13372,-1.29419 -0.40039,-1.88086 -0.24,-0.61333 -0.58768,-1.13193 -1.04101,-1.55859 -0.42667,-0.45334 -0.94526,-0.81341 -1.5586,-1.08008 -0.58666,-0.26667 -1.21419,-0.40039 -1.88086,-0.40039 z m 0.11914,3.24023 h 3.83985 c 0.34666,0 0.68,0.13177 1,0.39844 -1.06667,2.82667 -2.13256,5.64141 -3.19922,8.44141 -1.04,2.8 -2.09349,5.61278 -3.16016,8.43945 v -15.7207 c 0,-0.42667 0.14612,-0.78675 0.43945,-1.08008 0.29334,-0.32 0.65342,-0.47852 1.08008,-0.47852 z m 5.35938,5.71875 v 16.52149 c 0,0.42666 -0.14612,0.78674 -0.43946,1.08008 -0.26666,0.29333 -0.62674,0.43945 -1.08007,0.43945 h -3.83985 c -0.50666,0 -0.92023,-0.19961 -1.24023,-0.59961 1.12,-2.90667 2.21263,-5.81404 3.2793,-8.7207 1.09333,-2.90667 2.20031,-5.81404 3.32031,-8.72071 z m 12.09765,62.01563 c -0.72,0 -1.39906,0.13372 -2.03906,0.40039 -0.64,0.26667 -1.19969,0.63914 -1.67969,1.11914 -0.45333,0.48 -0.82776,1.03969 -1.12109,1.67969 -0.26667,0.61333 -0.39844,1.28 -0.39844,2 v 1.68164 h 3.51953 v -1.68164 c 0,-0.50667 0.17287,-0.93263 0.51953,-1.2793 0.37334,-0.37333 0.81365,-0.56055 1.32032,-0.56055 h 2.83984 c 0.53333,0 0.97365,0.18722 1.32031,0.56055 0.37334,0.34667 0.56055,0.77263 0.56055,1.2793 v 4.7207 c 0,0.64 -0.20156,1.18729 -0.60156,1.64063 -0.37334,0.45333 -0.81365,0.85255 -1.32031,1.19921 l -5,3.40039 c -0.96,0.69334 -1.75844,1.49373 -2.39844,2.4004 -0.61334,0.90666 -0.91992,1.97255 -0.91992,3.19921 v 8.48047 h 13.47851 v -3.24023 h -9.95898 v -5.35938 c 0,-0.66666 0.18721,-1.21395 0.56054,-1.64062 0.37334,-0.45333 0.8117,-0.85255 1.31836,-1.19922 l 5,-3.44141 c 0.96,-0.69333 1.748,-1.47937 2.36133,-2.35937 0.64,-0.90667 0.95899,-1.97255 0.95899,-3.19922 v -4.60156 c 0,-0.72 -0.14612,-1.38667 -0.43946,-2 -0.26666,-0.64 -0.63914,-1.19969 -1.11914,-1.67969 -0.45333,-0.48 -1.00062,-0.85247 -1.64062,-1.11914 -0.61334,-0.26667 -1.28,-0.40039 -2,-0.40039 z m 16.36133,0 c -0.69333,0 -1.33325,0.13372 -1.91992,0.40039 -0.58667,0.26667 -1.10721,0.62674 -1.56055,1.08008 -0.45333,0.42666 -0.81341,0.94721 -1.08008,1.56054 -0.23999,0.58667 -0.35937,1.21224 -0.35937,1.87891 v 20.43945 c 0,0.66667 0.11937,1.30659 0.35937,1.91993 0.26667,0.58666 0.62675,1.10721 1.08008,1.56054 0.45334,0.42667 0.97388,0.77435 1.56055,1.04102 0.58667,0.24 1.22659,0.35937 1.91992,0.35937 h 4.11914 c 0.66667,0 1.2942,-0.11937 1.88086,-0.35937 0.61334,-0.26667 1.13193,-0.61435 1.5586,-1.04102 0.45333,-0.45333 0.80101,-0.97388 1.04101,-1.56054 0.26667,-0.61334 0.40039,-1.25326 0.40039,-1.91993 v -20.43945 c 0,-0.66667 -0.13372,-1.29224 -0.40039,-1.87891 -0.24,-0.61333 -0.58768,-1.13388 -1.04101,-1.56054 -0.42667,-0.45334 -0.94526,-0.81341 -1.5586,-1.08008 -0.58666,-0.26667 -1.21419,-0.40039 -1.88086,-0.40039 z m 0.11914,3.24023 h 3.83985 c 0.34666,0 0.68,0.13373 1,0.40039 -1.06667,2.82667 -2.13256,5.63946 -3.19922,8.43946 -1.04,2.8 -2.09349,5.61278 -3.16016,8.43945 v -15.71875 c 0,-0.42667 0.14612,-0.78674 0.43945,-1.08008 0.29334,-0.32 0.65342,-0.48047 1.08008,-0.48047 z m 5.36133,5.72071 v 16.51953 c 0,0.42666 -0.14807,0.78674 -0.44141,1.08008 -0.26666,0.29333 -0.62674,0.43945 -1.08007,0.43945 h -3.83985 c -0.50666,0 -0.92023,-0.19961 -1.24023,-0.59961 1.12,-2.90667 2.21458,-5.81404 3.28125,-8.7207 1.09333,-2.90667 2.20031,-5.81209 3.32031,-8.71875 z m -5.45508,68.60937 v 3.23828 h 1.04102 v 27 h 3.51953 v -30.23828 z m 12.64063,0 c -0.69334,0 -1.33326,0.13177 -1.91992,0.39844 -0.58667,0.26667 -1.10722,0.62674 -1.56055,1.08008 -0.45333,0.42666 -0.81341,0.94721 -1.08008,1.56054 -0.24,0.58667 -0.35937,1.2142 -0.35937,1.88086 v 20.43946 c 0,0.66666 0.11937,1.30658 0.35937,1.91992 0.26667,0.58666 0.62675,1.10721 1.08008,1.56054 0.45333,0.42667 0.97388,0.7724 1.56055,1.03907 0.58666,0.24 1.22658,0.35937 1.91992,0.35937 h 4.11914 c 0.66666,0 1.29419,-0.11937 1.88086,-0.35937 0.61333,-0.26667 1.13388,-0.6124 1.56054,-1.03907 0.45334,-0.45333 0.79907,-0.97388 1.03907,-1.56054 0.26666,-0.61334 0.40039,-1.25326 0.40039,-1.91992 V 302.1582 c 0,-0.66666 -0.13373,-1.29419 -0.40039,-1.88086 -0.24,-0.61333 -0.58573,-1.13388 -1.03907,-1.56054 -0.42666,-0.45334 -0.94721,-0.81341 -1.56054,-1.08008 -0.58667,-0.26667 -1.2142,-0.39844 -1.88086,-0.39844 z m 0.11914,3.23828 h 3.83984 c 0.34667,0 0.68,0.13373 1,0.40039 -1.06666,2.82667 -2.13255,5.64141 -3.19922,8.44141 -1.04,2.8 -2.09349,5.61279 -3.16015,8.43945 v -15.7207 c 0,-0.42667 0.14612,-0.78675 0.43945,-1.08008 0.29333,-0.32 0.65341,-0.48047 1.08008,-0.48047 z m 5.36133,5.72071 v 16.51953 c 0,0.42666 -0.14808,0.78674 -0.44141,1.08008 -0.26667,0.29333 -0.62674,0.4414 -1.08008,0.4414 h -3.83984 c -0.50667,0 -0.92024,-0.20156 -1.24024,-0.60156 1.12,-2.90667 2.21459,-5.81208 3.28125,-8.71875 1.09334,-2.90667 2.20032,-5.81404 3.32032,-8.7207 z m -0.19922,86.4414 c -0.69334,0 -1.33326,0.13373 -1.91992,0.40039 -0.58667,0.26667 -1.10526,0.62675 -1.5586,1.08008 -0.45333,0.42667 -0.81341,0.94721 -1.08008,1.56055 -0.24,0.58666 -0.36132,1.21419 -0.36132,1.88086 V 418 c 0,0.66667 0.12132,1.30659 0.36132,1.91992 0.26667,0.58667 0.62675,1.10722 1.08008,1.56055 0.45334,0.42667 0.97193,0.77239 1.5586,1.03906 0.58666,0.24 1.22658,0.35938 1.91992,0.35938 h 4.12109 c 0.66667,0 1.29224,-0.11938 1.87891,-0.35938 0.61333,-0.26667 1.13388,-0.61239 1.56054,-1.03906 0.45334,-0.45333 0.79907,-0.97388 1.03907,-1.56055 0.26666,-0.61333 0.40039,-1.25325 0.40039,-1.91992 v -20.43945 c 0,-0.66667 -0.13373,-1.2942 -0.40039,-1.88086 -0.24,-0.61334 -0.58573,-1.13388 -1.03907,-1.56055 -0.42666,-0.45333 -0.94721,-0.81341 -1.56054,-1.08008 -0.58667,-0.26666 -1.21224,-0.40039 -1.87891,-0.40039 z m 0.12109,3.24024 h 3.83985 c 0.34666,0 0.67999,0.13372 1,0.40039 -1.06667,2.82666 -2.13451,5.63945 -3.20118,8.43945 -1.04,2.8 -2.09349,5.61474 -3.16015,8.44141 v -15.72071 c 0,-0.42666 0.14807,-0.78674 0.4414,-1.08007 0.29334,-0.32 0.65341,-0.48047 1.08008,-0.48047 z m 5.35938,5.7207 v 16.51953 c 0,0.42667 -0.14612,0.78675 -0.43946,1.08008 -0.26666,0.29333 -0.62674,0.43945 -1.08007,0.43945 h -3.83985 c -0.50667,0 -0.92023,-0.19961 -1.24023,-0.59961 1.12,-2.90666 2.21263,-5.81208 3.27929,-8.71875 1.09334,-2.90666 2.20032,-5.81403 3.32032,-8.7207 z m -24.11524,82.22461 v 3.24023 h 1.03906 v 27 h 3.51954 v -30.24023 z m 12.63867,0 c -0.69333,0 -1.33325,0.13372 -1.91992,0.40039 -0.58666,0.26667 -1.10721,0.62674 -1.56054,1.08008 -0.45334,0.42666 -0.81342,0.94526 -1.08008,1.55859 -0.24,0.58667 -0.35938,1.21419 -0.35938,1.88086 v 20.43945 c 0,0.66667 0.11938,1.30659 0.35938,1.91993 0.26666,0.58666 0.62674,1.10721 1.08008,1.56054 0.45333,0.42667 0.97388,0.7724 1.56054,1.03906 0.58667,0.24001 1.22659,0.36133 1.91992,0.36133 h 4.1211 c 0.66666,0 1.29224,-0.12133 1.8789,-0.36133 0.61334,-0.26666 1.13388,-0.61239 1.56055,-1.03906 0.45333,-0.45333 0.79906,-0.97388 1.03906,-1.56054 0.26667,-0.61334 0.40039,-1.25326 0.40039,-1.91993 v -20.43945 c 0,-0.66667 -0.13372,-1.29419 -0.40039,-1.88086 -0.24,-0.61333 -0.58573,-1.13193 -1.03906,-1.55859 -0.42667,-0.45334 -0.94721,-0.81341 -1.56055,-1.08008 -0.58666,-0.26667 -1.21224,-0.40039 -1.8789,-0.40039 z m 0.1211,3.24023 h 3.83984 c 0.34667,0 0.68,0.13373 1,0.40039 -1.06667,2.82667 -2.1345,5.63946 -3.20117,8.43946 -1.04,2.8 -2.09349,5.61278 -3.16016,8.43945 v -15.7207 c 0,-0.42667 0.14808,-0.78479 0.44141,-1.07813 0.29333,-0.32 0.65341,-0.48047 1.08008,-0.48047 z m 5.35937,5.71875 v 16.52149 c 0,0.42666 -0.14612,0.78674 -0.43945,1.08008 -0.26667,0.29333 -0.62675,0.43945 -1.08008,0.43945 h -3.83984 c -0.50667,0 -0.92024,-0.19961 -1.24024,-0.59961 1.12,-2.90667 2.21263,-5.81404 3.2793,-8.7207 1.09333,-2.90667 2.20031,-5.81404 3.32031,-8.72071 z m -33.33203,67.42578 c -0.72,0 -1.39906,0.13373 -2.03906,0.4004 -0.64,0.26666 -1.20164,0.63914 -1.68164,1.11914 -0.45334,0.48 -0.82581,1.03968 -1.11914,1.67968 -0.26667,0.61334 -0.40039,1.28 -0.40039,2 v 1.68164 h 3.51953 v -1.68164 c 0,-0.50666 0.17482,-0.93263 0.52148,-1.27929 0.37334,-0.37334 0.8117,-0.56055 1.31836,-0.56055 h 2.8418 c 0.53333,0 0.97169,0.18721 1.31836,0.56055 0.37333,0.34666 0.56054,0.77263 0.56054,1.27929 v 4.72071 c 0,0.64 -0.1996,1.18729 -0.5996,1.64062 -0.37334,0.45333 -0.81365,0.85255 -1.32032,1.19922 l -5,3.40039 c -0.96,0.69333 -1.76039,1.49372 -2.40039,2.40039 -0.61333,0.90667 -0.91992,1.97255 -0.91992,3.19922 v 8.48047 h 13.48047 v -3.24024 h -9.96094 v -5.35937 c 0,-0.66667 0.18722,-1.21396 0.56055,-1.64063 0.37333,-0.45333 0.81364,-0.85255 1.32031,-1.19921 l 5,-3.44141 c 0.96,-0.69333 1.74604,-1.47938 2.35938,-2.35938 0.64,-0.90666 0.96093,-1.97255 0.96093,-3.19921 v -4.60157 c 0,-0.72 -0.14612,-1.38666 -0.43945,-2 -0.26667,-0.64 -0.64109,-1.19968 -1.12109,-1.67968 -0.45334,-0.48 -1.00063,-0.85248 -1.64063,-1.11914 -0.61333,-0.26667 -1.28,-0.4004 -2,-0.4004 z m 16.35938,0 c -0.69334,0 -1.33326,0.13373 -1.91993,0.4004 -0.58666,0.26666 -1.10526,0.62674 -1.55859,1.08007 -0.45333,0.42667 -0.81341,0.94526 -1.08008,1.5586 -0.24,0.58666 -0.36133,1.21419 -0.36133,1.88086 v 20.43945 c 0,0.66667 0.12133,1.30659 0.36133,1.91992 0.26667,0.58667 0.62675,1.10721 1.08008,1.56055 0.45333,0.42666 0.97193,0.77435 1.55859,1.04101 0.58667,0.24 1.22659,0.35938 1.91993,0.35938 h 4.12109 c 0.66667,0 1.29224,-0.11938 1.87891,-0.35938 0.61333,-0.26666 1.13388,-0.61435 1.56054,-1.04101 0.45334,-0.45334 0.80102,-0.97388 1.04102,-1.56055 0.26667,-0.61333 0.39844,-1.25325 0.39844,-1.91992 v -20.43945 c 0,-0.66667 -0.13177,-1.2942 -0.39844,-1.88086 -0.24,-0.61334 -0.58768,-1.13193 -1.04102,-1.5586 -0.42666,-0.45333 -0.94721,-0.81341 -1.56054,-1.08007 -0.58667,-0.26667 -1.21224,-0.4004 -1.87891,-0.4004 z m 0.12109,3.24024 h 3.83984 c 0.34667,0 0.68,0.13372 1,0.40039 -1.06666,2.82667 -2.1345,5.63945 -3.20117,8.43945 -1.04,2.8 -2.09153,5.61279 -3.1582,8.43946 v -15.71875 c 0,-0.42667 0.14612,-0.78675 0.43945,-1.08008 0.29334,-0.32 0.65341,-0.48047 1.08008,-0.48047 z m 5.35937,5.7207 v 16.51953 c 0,0.42667 -0.14611,0.78675 -0.43945,1.08008 -0.26666,0.29333 -0.62674,0.43945 -1.08008,0.43945 h -3.83984 c -0.50667,0 -0.92023,-0.1996 -1.24023,-0.5996 1.12,-2.90667 2.21263,-5.81404 3.27929,-8.72071 1.09334,-2.90666 2.20032,-5.81208 3.32031,-8.71875 z m -58.66015,64.97266 c -0.66667,0 -1.30659,0.13372 -1.91992,0.40039 -0.58667,0.24 -1.10722,0.58573 -1.56055,1.03906 -0.42667,0.42667 -0.77435,0.94721 -1.04102,1.56055 -0.24,0.58666 -0.35937,1.21419 -0.35937,1.88086 v 2 h 3.35937 v -2.1211 c 0,-0.42666 0.14808,-0.78674 0.44141,-1.08007 0.29333,-0.29334 0.65341,-0.43946 1.08008,-0.43946 h 4.19922 c 0.42666,0 0.78674,0.14612 1.08008,0.43946 0.29333,0.29333 0.43945,0.65341 0.43945,1.08007 v 6.44141 c 0,0.42667 -0.14612,0.78674 -0.43945,1.08008 -0.29334,0.29333 -0.65342,0.43945 -1.08008,0.43945 h -3.83985 v 3.24024 h 4.32032 c 0.42666,0 0.78674,0.14612 1.08007,0.43945 0.29334,0.29333 0.43946,0.65341 0.43946,1.08008 v 8 c 0,0.42666 -0.14612,0.78674 -0.43946,1.08007 -0.29333,0.29334 -0.65341,0.43946 -1.08007,0.43946 h -4.59961 c -0.42667,0 -0.78675,-0.14612 -1.08008,-0.43946 -0.29333,-0.29333 -0.44141,-0.65341 -0.44141,-1.08007 v -2.11914 h -3.35937 v 2 c 0,0.66666 0.11937,1.30658 0.35937,1.91992 0.26667,0.58666 0.61435,1.10526 1.04102,1.55859 0.45333,0.42667 0.97388,0.77435 1.56054,1.04102 0.61334,0.24 1.25326,0.35937 1.91993,0.35937 h 4.75976 c 0.66667,0 1.29224,-0.11937 1.87891,-0.35937 0.61333,-0.26667 1.13388,-0.61435 1.56055,-1.04102 0.45333,-0.45333 0.80101,-0.97193 1.04101,-1.55859 0.26667,-0.61334 0.39844,-1.25326 0.39844,-1.91992 v -7.8418 c 0,-0.69333 -0.13177,-1.31891 -0.39844,-1.87891 -0.26667,-0.56 -0.64109,-1.09294 -1.12109,-1.59961 0.32,-0.45333 0.5731,-0.90799 0.75976,-1.36132 0.18667,-0.48 0.28125,-0.9986 0.28125,-1.5586 v -6.24023 c 0,-0.66667 -0.13372,-1.2942 -0.40039,-1.88086 -0.26666,-0.61334 -0.62674,-1.13388 -1.08008,-1.56055 -0.42666,-0.45333 -0.94721,-0.79906 -1.56054,-1.03906 -0.58667,-0.26667 -1.21224,-0.40039 -1.87891,-0.40039 z m 17.71875,0 c -0.69333,0 -1.33326,0.13372 -1.91992,0.40039 -0.58667,0.26667 -1.10526,0.62674 -1.5586,1.08008 -0.45333,0.42666 -0.81341,0.94721 -1.08008,1.56054 -0.23999,0.58667 -0.36132,1.21224 -0.36132,1.87891 v 20.44141 c 0,0.66666 0.12132,1.30658 0.36132,1.91992 0.26667,0.58666 0.62675,1.10526 1.08008,1.55859 0.45334,0.42667 0.97193,0.77435 1.5586,1.04102 0.58666,0.24 1.22659,0.35937 1.91992,0.35937 h 4.12109 c 0.66667,0 1.29224,-0.11937 1.87891,-0.35937 0.61333,-0.26667 1.13388,-0.61435 1.56055,-1.04102 0.45333,-0.45333 0.79906,-0.97193 1.03906,-1.55859 0.26666,-0.61334 0.40039,-1.25326 0.40039,-1.91992 V 639.0625 c 0,-0.66667 -0.13373,-1.29224 -0.40039,-1.87891 -0.24,-0.61333 -0.58573,-1.13388 -1.03906,-1.56054 -0.42667,-0.45334 -0.94722,-0.81341 -1.56055,-1.08008 -0.58667,-0.26667 -1.21224,-0.40039 -1.87891,-0.40039 z m 0.12109,3.24023 h 3.83985 c 0.34666,0 0.68,0.13373 1,0.40039 -1.06667,2.82667 -2.13451,5.63946 -3.20118,8.43946 -1.04,2.8 -2.09349,5.61278 -3.16015,8.43945 v -15.71875 c 0,-0.42667 0.14807,-0.78675 0.4414,-1.08008 0.29334,-0.32 0.65342,-0.48047 1.08008,-0.48047 z m 5.35938,5.72071 v 16.51953 c 0,0.42666 -0.14612,0.78674 -0.43946,1.08007 -0.26666,0.29334 -0.62674,0.43946 -1.08007,0.43946 h -3.83985 c -0.50666,0 -0.92023,-0.19961 -1.24023,-0.59961 1.12,-2.90667 2.21263,-5.81404 3.2793,-8.7207 1.09333,-2.90667 2.20031,-5.81209 3.32031,-8.71875 z m -69.44922,60.29882 -4.92188,20.88086 h 11.96094 v 9.35938 h 3.48047 v -9.35938 h 1.03906 v -3.24023 H 853.125 v -17.64063 h -3.48047 v 17.64063 H 842.125 l 4.08008,-17.64063 z m 19.11914,0 c -0.69333,0 -1.33326,0.13373 -1.91992,0.40039 -0.58667,0.26667 -1.10722,0.62675 -1.56055,1.08008 -0.45333,0.42667 -0.81341,0.94526 -1.08008,1.5586 -0.24,0.58666 -0.35937,1.21419 -0.35937,1.88086 v 20.43945 c 0,0.66667 0.11937,1.30659 0.35937,1.91992 0.26667,0.58667 0.62675,1.10721 1.08008,1.56055 0.45333,0.42666 0.97388,0.77435 1.56055,1.04101 0.58666,0.24 1.22659,0.35938 1.91992,0.35938 h 4.11914 c 0.66667,0 1.29419,-0.11938 1.88086,-0.35938 0.61333,-0.26666 1.13388,-0.61435 1.56055,-1.04101 0.45333,-0.45334 0.79906,-0.97388 1.03906,-1.56055 0.26667,-0.61333 0.40039,-1.25325 0.40039,-1.91992 v -20.43945 c 0,-0.66667 -0.13372,-1.2942 -0.40039,-1.88086 -0.24,-0.61334 -0.58573,-1.13193 -1.03906,-1.5586 -0.42667,-0.45333 -0.94722,-0.81341 -1.56055,-1.08008 -0.58667,-0.26666 -1.21419,-0.40039 -1.88086,-0.40039 z m 0.11914,3.24024 h 3.83984 c 0.34667,0 0.68,0.13372 1,0.40039 -1.06666,2.82667 -2.13255,5.63945 -3.19921,8.43945 -1.04001,2.8 -2.09349,5.61279 -3.16016,8.43946 v -15.71876 c 0,-0.42666 0.14612,-0.78674 0.43945,-1.08007 0.29334,-0.32 0.65341,-0.48047 1.08008,-0.48047 z m 5.36133,5.7207 v 16.51953 c 0,0.42667 -0.14807,0.78675 -0.44141,1.08008 -0.26666,0.29333 -0.62674,0.43945 -1.08008,0.43945 h -3.83984 c -0.50667,0 -0.91828,-0.19961 -1.23828,-0.59961 1.12,-2.90666 2.21263,-5.81403 3.2793,-8.7207 1.09333,-2.90667 2.20031,-5.81208 3.32031,-8.71875 z"
       transform="translate(14.147963,67.095154)"
       inkscape:label="Right Text" />
    <path
       id="text8338"
       style="font-size:40px;line-height:1.25;font-family:'Autobus Bold';-inkscape-font-specification:'Autobus Bold, '"
       d="m 111.75391,84.863281 -4.91993,20.878909 h 11.96094 v 9.36133 h 3.47852 v -9.36133 h 1.04101 v -3.23828 h -1.04101 V 84.863281 h -3.47852 v 17.640629 h -7.52148 l 4.08008,-17.640629 z m 19.12109,0 c -0.69333,0 -1.33326,0.133724 -1.91992,0.400391 -0.58667,0.266667 -1.10722,0.626745 -1.56055,1.080078 -0.45333,0.426667 -0.81341,0.94526 -1.08008,1.558594 -0.24,0.586666 -0.35937,1.214192 -0.35937,1.880859 v 20.439457 c 0,0.66666 0.11937,1.30658 0.35937,1.91992 0.26667,0.58666 0.62675,1.10721 1.08008,1.56054 0.45333,0.42667 0.97388,0.7724 1.56055,1.03907 0.58666,0.24 1.22659,0.36133 1.91992,0.36133 h 4.11914 c 0.66667,0 1.29419,-0.12133 1.88086,-0.36133 0.61333,-0.26667 1.13193,-0.6124 1.55859,-1.03907 0.45334,-0.45333 0.80102,-0.97388 1.04102,-1.56054 0.26667,-0.61334 0.40039,-1.25326 0.40039,-1.91992 V 89.783203 c 0,-0.666667 -0.13372,-1.294193 -0.40039,-1.880859 -0.24,-0.613334 -0.58768,-1.131927 -1.04102,-1.558594 -0.42666,-0.453333 -0.94526,-0.813411 -1.55859,-1.080078 -0.58667,-0.266667 -1.21419,-0.400391 -1.88086,-0.400391 z m 0.11914,3.240235 h 3.83984 c 0.34667,0 0.68,0.133724 1,0.40039 -1.06666,2.826667 -2.13255,5.639453 -3.19921,8.439453 -1.04,2.8 -2.09349,5.612791 -3.16016,8.439451 V 89.664062 c 0,-0.426666 0.14612,-0.786744 0.43945,-1.080078 0.29334,-0.32 0.65341,-0.480468 1.08008,-0.480468 z m 5.35938,5.71875 v 16.521484 c 0,0.42667 -0.14612,0.78674 -0.43946,1.08008 -0.26666,0.29333 -0.62674,0.43945 -1.08008,0.43945 h -3.83984 c -0.50667,0 -0.92023,-0.19961 -1.24023,-0.59961 1.12,-2.90666 2.21458,-5.81403 3.28125,-8.7207 1.09333,-2.906668 2.19836,-5.814038 3.31836,-8.720704 z M 69.023438,150.4375 c -0.666667,0 -1.306589,0.13372 -1.919922,0.40039 -0.586667,0.24 -1.107214,0.58573 -1.560547,1.03906 -0.426667,0.42667 -0.772396,0.94722 -1.039063,1.56055 -0.24,0.58667 -0.361328,1.21224 -0.361328,1.87891 v 2 h 3.361328 v -2.11914 c 0,-0.42667 0.14612,-0.78675 0.439453,-1.08008 0.293334,-0.29334 0.653412,-0.43946 1.080079,-0.43946 h 4.199218 c 0.426667,0 0.786745,0.14612 1.080078,0.43946 0.293334,0.29333 0.441407,0.65341 0.441407,1.08008 v 6.43945 c 0,0.42667 -0.148073,0.78674 -0.441407,1.08008 -0.293333,0.29333 -0.653411,0.43945 -1.080078,0.43945 h -3.839844 v 3.24023 h 4.320313 c 0.426667,0 0.786745,0.14808 1.080078,0.44141 0.293333,0.29333 0.439453,0.65146 0.439453,1.07813 v 8 c 0,0.42666 -0.14612,0.78674 -0.439453,1.08007 -0.293333,0.29334 -0.653411,0.44141 -1.080078,0.44141 h -4.599609 c -0.426667,0 -0.786745,-0.14807 -1.080078,-0.44141 -0.293334,-0.29333 -0.439454,-0.65341 -0.439454,-1.08007 v -2.11914 h -3.361328 v 2 c 0,0.66666 0.121328,1.30658 0.361328,1.91992 0.266667,0.58666 0.612396,1.10721 1.039063,1.56054 0.453333,0.42667 0.97388,0.7724 1.560547,1.03907 0.613333,0.24 1.253255,0.36132 1.919922,0.36132 h 4.759765 c 0.666667,0 1.294193,-0.12132 1.88086,-0.36132 0.613333,-0.26667 1.131927,-0.6124 1.558593,-1.03907 0.453334,-0.45333 0.801016,-0.97388 1.041016,-1.56054 0.266667,-0.61334 0.400391,-1.25326 0.400391,-1.91992 v -7.83985 c 0,-0.69333 -0.133724,-1.32086 -0.400391,-1.88086 -0.266667,-0.56 -0.641094,-1.09294 -1.121094,-1.59961 0.32,-0.45333 0.575052,-0.90604 0.761719,-1.35937 0.186667,-0.48 0.279297,-1.00055 0.279297,-1.56055 v -6.24023 c 0,-0.66667 -0.133724,-1.29224 -0.400391,-1.87891 -0.266666,-0.61333 -0.626745,-1.13388 -1.080078,-1.56055 -0.426667,-0.45333 -0.947213,-0.79906 -1.560547,-1.03906 -0.586666,-0.26667 -1.212239,-0.40039 -1.878906,-0.40039 z m 17.720703,0 c -0.693334,0 -1.333256,0.13372 -1.919922,0.40039 -0.586667,0.26667 -1.107214,0.62479 -1.560547,1.07813 -0.453333,0.42666 -0.813412,0.94721 -1.080078,1.56054 -0.24,0.58667 -0.359375,1.2142 -0.359375,1.88086 v 20.43946 c 0,0.66666 0.119375,1.30658 0.359375,1.91992 0.266666,0.58666 0.626745,1.10721 1.080078,1.56054 0.453333,0.42667 0.97388,0.7724 1.560547,1.03907 0.586666,0.24 1.226588,0.36132 1.919922,0.36132 h 4.11914 c 0.666667,0 1.294193,-0.12132 1.88086,-0.36132 0.613333,-0.26667 1.131927,-0.6124 1.558593,-1.03907 0.453334,-0.45333 0.801016,-0.97388 1.041016,-1.56054 0.266667,-0.61334 0.400391,-1.25326 0.400391,-1.91992 v -20.43946 c 0,-0.66666 -0.133724,-1.29419 -0.400391,-1.88086 -0.24,-0.61333 -0.587682,-1.13388 -1.041016,-1.56054 -0.426666,-0.45334 -0.94526,-0.81146 -1.558593,-1.07813 -0.586667,-0.26667 -1.214193,-0.40039 -1.88086,-0.40039 z m 0.11914,3.24023 h 3.839844 c 0.346667,0 0.68,0.13178 1,0.39844 -1.066667,2.82667 -2.132552,5.64141 -3.199219,8.44141 -1.04,2.8 -2.093489,5.61278 -3.160156,8.43945 v -15.7207 c 0,-0.42667 0.14612,-0.78675 0.439453,-1.08008 0.293333,-0.32 0.653412,-0.47852 1.080078,-0.47852 z m 5.359375,5.71875 v 16.51954 c 0,0.42666 -0.14612,0.78674 -0.439453,1.08007 -0.266667,0.29334 -0.626745,0.44141 -1.080078,0.44141 h -3.839844 c -0.506666,0 -0.920234,-0.19961 -1.240234,-0.59961 1.12,-2.90667 2.214583,-5.81404 3.28125,-8.7207 1.093333,-2.90667 2.198359,-5.81404 3.318359,-8.72071 z m -57.689453,61.9004 c -0.72,0 -1.401016,0.13372 -2.041015,0.40039 -0.640001,0.26666 -1.199688,0.64109 -1.679688,1.12109 -0.453333,0.48 -0.825807,1.03969 -1.119141,1.67969 -0.266666,0.61333 -0.40039,1.28 -0.40039,2 v 1.67968 H 32.8125 v -1.67968 c 0,-0.50667 0.172865,-0.93459 0.519531,-1.28125 0.373334,-0.37334 0.813646,-0.5586 1.320313,-0.5586 h 2.839844 c 0.533333,0 0.973645,0.18526 1.320312,0.5586 0.373333,0.34666 0.560547,0.77458 0.560547,1.28125 v 4.71875 c 0,0.64 -0.201563,1.18729 -0.601563,1.64062 -0.373333,0.45334 -0.811692,0.85451 -1.318359,1.20117 l -5,3.39844 c -0.96,0.69333 -1.760391,1.49373 -2.400391,2.40039 -0.613333,0.90667 -0.919922,1.97451 -0.919922,3.20117 v 8.47852 h 13.480469 v -3.24023 h -9.960937 v -5.35938 c 0,-0.66667 0.187213,-1.21396 0.560547,-1.64062 0.373333,-0.45334 0.813645,-0.85256 1.320312,-1.19922 l 5,-3.43946 c 0.96,-0.69333 1.746042,-1.48133 2.359375,-2.36132 0.64,-0.90667 0.958984,-1.97256 0.958984,-3.19922 v -4.59961 c 0,-0.72 -0.146119,-1.38667 -0.439453,-2 -0.266666,-0.64 -0.63914,-1.19969 -1.11914,-1.67969 -0.453334,-0.48 -1.000625,-0.85443 -1.640625,-1.12109 -0.613334,-0.26667 -1.28,-0.40039 -2,-0.40039 z m 16.359375,0 c -0.693333,0 -1.333255,0.13372 -1.919922,0.40039 -0.586666,0.26666 -1.107213,0.62674 -1.560547,1.08007 -0.453333,0.42667 -0.813411,0.94722 -1.080078,1.56055 -0.24,0.58667 -0.359375,1.21224 -0.359375,1.87891 v 20.4414 c 0,0.66667 0.119375,1.30659 0.359375,1.91992 0.266667,0.58667 0.626745,1.10722 1.080078,1.56055 0.453334,0.42667 0.973881,0.7724 1.560547,1.03906 0.586667,0.24 1.226589,0.35938 1.919922,0.35938 h 4.119141 c 0.666666,0 1.294192,-0.11938 1.880859,-0.35938 0.613333,-0.26666 1.13388,-0.61239 1.560547,-1.03906 0.453333,-0.45333 0.799062,-0.97388 1.039063,-1.56055 0.266666,-0.61333 0.40039,-1.25325 0.40039,-1.91992 v -20.4414 c 0,-0.66667 -0.133724,-1.29224 -0.40039,-1.87891 -0.240001,-0.61333 -0.58573,-1.13388 -1.039063,-1.56055 -0.426667,-0.45333 -0.947214,-0.81341 -1.560547,-1.08007 -0.586667,-0.26667 -1.214193,-0.40039 -1.880859,-0.40039 z m 0.119141,3.24023 h 3.839843 c 0.346667,0 0.680001,0.13372 1,0.40039 -1.066666,2.82667 -2.132552,5.63945 -3.199218,8.43945 -1.04,2.8 -2.09349,5.61474 -3.160156,8.44141 v -15.7207 c 0,-0.42667 0.146119,-0.78675 0.439453,-1.08008 0.293333,-0.32 0.653411,-0.48047 1.080078,-0.48047 z m 5.361328,5.7207 v 16.51953 c 0,0.42667 -0.148073,0.78675 -0.441406,1.08008 -0.266667,0.29334 -0.626745,0.43946 -1.080079,0.43946 h -3.839843 c -0.506667,0 -0.920235,-0.19961 -1.240235,-0.59961 1.12,-2.90667 2.214584,-5.81209 3.28125,-8.71875 1.093334,-2.90667 2.200313,-5.81404 3.320313,-8.72071 z m -37.558594,67.47852 v 3.24023 h 1.041016 v 27 H 23.375 v -30.24023 z m 12.640625,0 c -0.693333,0 -1.333255,0.13177 -1.919922,0.39844 -0.586666,0.26666 -1.107213,0.62674 -1.560547,1.08007 -0.453333,0.42667 -0.813411,0.94722 -1.080078,1.56055 -0.24,0.58667 -0.359375,1.21419 -0.359375,1.88086 v 20.43945 c 0,0.66667 0.119375,1.30659 0.359375,1.91992 0.266667,0.58667 0.626745,1.10722 1.080078,1.56055 0.453334,0.42667 0.973881,0.7724 1.560547,1.03906 0.586667,0.24 1.226589,0.36133 1.919922,0.36133 h 4.119141 c 0.666666,0 1.294192,-0.12133 1.880859,-0.36133 0.613333,-0.26666 1.13388,-0.61239 1.560547,-1.03906 0.453333,-0.45333 0.799062,-0.97388 1.039063,-1.56055 0.266666,-0.61333 0.40039,-1.25325 0.40039,-1.91992 v -20.43945 c 0,-0.66667 -0.133724,-1.29419 -0.40039,-1.88086 -0.24,-0.61333 -0.58573,-1.13388 -1.039063,-1.56055 -0.426667,-0.45333 -0.947214,-0.81341 -1.560547,-1.08007 -0.586667,-0.26667 -1.214193,-0.39844 -1.880859,-0.39844 z m 0.119141,3.24023 h 3.839843 c 0.346667,0 0.680001,0.13177 1,0.39844 -1.066666,2.82667 -2.132552,5.64141 -3.199218,8.44141 -1.04,2.8 -2.09349,5.61278 -3.160156,8.43945 v -15.7207 c -10e-7,-0.42667 0.146119,-0.78675 0.439453,-1.08008 0.293333,-0.32 0.653411,-0.47852 1.080078,-0.47852 z m 5.361328,5.71875 v 16.51953 c 0,0.42667 -0.148073,0.78675 -0.441406,1.08008 -0.266667,0.29334 -0.626745,0.44141 -1.080079,0.44141 h -3.839843 c -0.506667,0 -0.920235,-0.20156 -1.240235,-0.60156 1.12,-2.90667 2.214584,-5.81209 3.28125,-8.71875 1.093334,-2.90667 2.200313,-5.81404 3.320313,-8.72071 z M 19.542969,391.7168 c -0.693334,0 -1.333255,0.13177 -1.919922,0.39843 -0.586667,0.26667 -1.107214,0.62675 -1.560547,1.08008 -0.453333,0.42667 -0.813411,0.94722 -1.080078,1.56055 -0.24,0.58667 -0.359375,1.21419 -0.359375,1.88086 v 20.43945 c 0,0.66667 0.119375,1.30659 0.359375,1.91992 0.266667,0.58667 0.626745,1.10722 1.080078,1.56055 0.453333,0.42667 0.97388,0.7724 1.560547,1.03906 0.586667,0.24 1.226588,0.36133 1.919922,0.36133 h 4.11914 c 0.666667,0 1.294193,-0.12133 1.88086,-0.36133 0.613333,-0.26666 1.131927,-0.61239 1.558593,-1.03906 0.453334,-0.45333 0.801016,-0.97388 1.041016,-1.56055 0.266667,-0.61333 0.400391,-1.25325 0.400391,-1.91992 v -20.43945 c 0,-0.66667 -0.133724,-1.29419 -0.400391,-1.88086 -0.24,-0.61333 -0.587682,-1.13388 -1.041016,-1.56055 -0.426666,-0.45333 -0.94526,-0.81341 -1.558593,-1.08008 -0.586667,-0.26666 -1.214193,-0.39843 -1.88086,-0.39843 z m 0.11914,3.24023 h 3.839844 c 0.346667,0 0.68,0.13177 1,0.39844 -1.066667,2.82667 -2.132552,5.64141 -3.199219,8.44141 -1.04,2.8 -2.093489,5.61278 -3.160156,8.43945 v -15.72071 c 0,-0.42666 0.14612,-0.78674 0.439453,-1.08007 0.293334,-0.32 0.653412,-0.47852 1.080078,-0.47852 z m 5.359375,5.71875 v 16.51953 c 0,0.42667 -0.146119,0.78675 -0.439453,1.08008 -0.266666,0.29333 -0.626745,0.44141 -1.080078,0.44141 h -3.839844 c -0.506666,0 -0.920234,-0.20157 -1.240234,-0.60157 1.12,-2.90666 2.214583,-5.81208 3.28125,-8.71875 1.093333,-2.90666 2.198359,-5.81403 3.318359,-8.7207 z m -6.919922,83.64649 v 3.24023 h 1.039063 v 27 h 3.519531 v -30.24023 z m 12.638672,0 c -0.693333,0 -1.333255,0.13372 -1.919922,0.40039 -0.586666,0.26666 -1.107213,0.62674 -1.560546,1.08007 -0.453334,0.42667 -0.813412,0.94526 -1.080078,1.5586 -0.24,0.58666 -0.359376,1.21419 -0.359376,1.88086 v 20.43945 c 10e-7,0.66667 0.119376,1.30659 0.359376,1.91992 0.266666,0.58667 0.626744,1.10722 1.080078,1.56055 0.453333,0.42667 0.97388,0.77435 1.560546,1.04101 0.586667,0.24001 1.226589,0.35938 1.919922,0.35938 h 4.121094 c 0.666667,0 1.29224,-0.11938 1.878906,-0.35938 0.613334,-0.26666 1.133881,-0.61434 1.560547,-1.04101 0.453334,-0.45333 0.799063,-0.97388 1.039063,-1.56055 0.266666,-0.61333 0.40039,-1.25325 0.40039,-1.91992 v -20.43945 c 0,-0.66667 -0.133724,-1.2942 -0.40039,-1.88086 -0.24,-0.61334 -0.585729,-1.13193 -1.039063,-1.5586 -0.426666,-0.45333 -0.947213,-0.81341 -1.560547,-1.08007 -0.586666,-0.26667 -1.212239,-0.40039 -1.878906,-0.40039 z m 0.121094,3.24023 h 3.839844 c 0.346667,0 0.68,0.13372 1,0.40039 -1.066667,2.82667 -2.134505,5.63945 -3.201172,8.43945 -1.04,2.8 -2.09349,5.61279 -3.160156,8.43946 v -15.71875 c 0,-0.42667 0.148073,-0.78675 0.441406,-1.08008 0.293333,-0.32 0.653411,-0.48047 1.080078,-0.48047 z m 5.359375,5.71875 v 16.52148 c 0,0.42667 -0.14612,0.78675 -0.439453,1.08008 -0.266667,0.29334 -0.626745,0.43946 -1.080078,0.43946 h -3.839844 c -0.506667,0 -0.920234,-0.19961 -1.240234,-0.59961 1.12,-2.90667 2.21263,-5.81404 3.279297,-8.72071 1.093333,-2.90666 2.200312,-5.81403 3.320312,-8.7207 z m -1.228515,68.55664 c -0.72,0 -1.399063,0.13372 -2.039063,0.40039 -0.64,0.26667 -1.199687,0.64109 -1.679687,1.1211 -0.453334,0.48 -0.827761,1.03968 -1.121094,1.67968 -0.266667,0.61334 -0.400391,1.28 -0.400391,2 v 1.67969 h 3.521485 v -1.67969 c 0,-0.50666 0.172864,-0.93458 0.519531,-1.28125 0.373333,-0.37333 0.813646,-0.55859 1.320312,-0.55859 h 2.839844 c 0.533333,0 0.973646,0.18526 1.320313,0.55859 0.373333,0.34667 0.558593,0.77459 0.558593,1.28125 v 4.71875 c 0,0.64 -0.199609,1.18729 -0.599609,1.64063 -0.373333,0.45333 -0.813646,0.85255 -1.320313,1.19922 l -5,3.40039 c -0.96,0.69333 -1.76039,1.49372 -2.40039,2.40039 -0.613334,0.90666 -0.919922,1.97255 -0.919922,3.19922 v 8.48046 h 13.480469 v -3.24023 h -9.958985 v -5.35937 c 0,-0.66667 0.185261,-1.21396 0.558594,-1.64063 0.373333,-0.45333 0.813646,-0.85255 1.320313,-1.19922 l 5,-3.43945 c 0.96,-0.69333 1.747994,-1.48133 2.361328,-2.36133 0.64,-0.90667 0.958984,-1.97255 0.958984,-3.19922 v -4.59961 c 0,-0.72 -0.14612,-1.38666 -0.439453,-2 -0.266667,-0.64 -0.641094,-1.19968 -1.121094,-1.67968 -0.453333,-0.48 -0.998672,-0.85443 -1.638672,-1.1211 -0.613333,-0.26667 -1.28,-0.40039 -2,-0.40039 z m 16.361328,0 c -0.693334,0 -1.335209,0.13372 -1.921875,0.40039 -0.586667,0.26667 -1.105261,0.62675 -1.558594,1.08008 -0.453333,0.42667 -0.813412,0.94721 -1.080078,1.56055 -0.24,0.58666 -0.361328,1.21224 -0.361328,1.8789 v 20.44141 c 0,0.66667 0.121328,1.30659 0.361328,1.91992 0.266666,0.58667 0.626745,1.10526 1.080078,1.55859 0.453333,0.42667 0.971927,0.77435 1.558594,1.04102 0.586666,0.24 1.228541,0.35937 1.921875,0.35937 h 4.11914 c 0.666667,0 1.294193,-0.11937 1.88086,-0.35937 0.613333,-0.26667 1.131927,-0.61435 1.558593,-1.04102 0.453334,-0.45333 0.801016,-0.97192 1.041016,-1.55859 0.266667,-0.61333 0.400391,-1.25325 0.400391,-1.91992 v -20.44141 c 0,-0.66666 -0.133724,-1.29224 -0.400391,-1.8789 -0.24,-0.61334 -0.587682,-1.13388 -1.041016,-1.56055 -0.426666,-0.45333 -0.94526,-0.81341 -1.558593,-1.08008 -0.586667,-0.26667 -1.214193,-0.40039 -1.88086,-0.40039 z m 0.11914,3.24023 H 55.3125 c 0.346667,0 0.68,0.13373 1,0.4004 -1.066667,2.82666 -2.132552,5.63945 -3.199219,8.43945 -1.04,2.8 -2.093489,5.61474 -3.160156,8.44141 v -15.72071 c 0,-0.42666 0.14612,-0.78674 0.439453,-1.08008 0.293333,-0.32 0.653412,-0.48047 1.080078,-0.48047 z m 5.359375,5.72071 v 16.51953 c 0,0.42667 -0.14612,0.78674 -0.439453,1.08008 -0.266667,0.29333 -0.626745,0.43945 -1.080078,0.43945 h -3.839844 c -0.506666,0 -0.920234,-0.19961 -1.240234,-0.59961 1.12,-2.90667 2.21263,-5.81208 3.279297,-8.71875 1.093333,-2.90667 2.200312,-5.81404 3.320312,-8.7207 z m 11.128907,65.08789 c -0.666667,0 -1.306589,0.13372 -1.919922,0.40039 -0.586667,0.24 -1.107214,0.58573 -1.560547,1.03906 -0.426667,0.42667 -0.772396,0.94722 -1.039063,1.56055 -0.24,0.58667 -0.361328,1.21419 -0.361328,1.88086 v 2 h 3.361328 v -2.1211 c 0,-0.42666 0.14612,-0.78674 0.439453,-1.08007 0.293334,-0.29334 0.653412,-0.43946 1.080079,-0.43946 h 4.199218 c 0.426667,0 0.786745,0.14612 1.080078,0.43946 0.293334,0.29333 0.439454,0.65341 0.439454,1.08007 v 6.43946 c 0,0.42666 -0.14612,0.78674 -0.439454,1.08008 -0.293333,0.29333 -0.653411,0.4414 -1.080078,0.4414 h -3.839844 v 3.24024 h 4.320313 c 0.426667,0 0.786745,0.14612 1.080078,0.43945 0.293333,0.29333 0.439453,0.65341 0.439453,1.08008 v 8 c 0,0.42666 -0.14612,0.78674 -0.439453,1.08008 -0.293333,0.29333 -0.653411,0.43945 -1.080078,0.43945 h -4.599609 c -0.426667,0 -0.786745,-0.14612 -1.080078,-0.43945 -0.293334,-0.29334 -0.441407,-0.65342 -0.441407,-1.08008 v -2.1211 h -3.359375 v 2 c 0,0.66667 0.119375,1.30659 0.359375,1.91993 0.266667,0.58666 0.614349,1.10721 1.041016,1.56054 0.453333,0.42667 0.97388,0.77435 1.560547,1.04102 0.613333,0.24 1.253255,0.35937 1.919922,0.35937 h 4.759765 c 0.666667,0 1.29224,-0.11937 1.878907,-0.35937 0.613333,-0.26667 1.13388,-0.61435 1.560546,-1.04102 0.453334,-0.45333 0.801016,-0.97388 1.041016,-1.56054 0.266667,-0.61334 0.398438,-1.25326 0.398438,-1.91993 v -7.83984 c 0,-0.69333 -0.131771,-1.31891 -0.398438,-1.87891 -0.266667,-0.56 -0.641094,-1.09294 -1.121094,-1.59961 0.32,-0.45333 0.573099,-0.90799 0.759766,-1.36132 0.186667,-0.48 0.28125,-0.9986 0.28125,-1.5586 v -6.24023 c 0,-0.66667 -0.133724,-1.29419 -0.400391,-1.88086 -0.266666,-0.61333 -0.626745,-1.13388 -1.080078,-1.56055 -0.426667,-0.45333 -0.947213,-0.79906 -1.560547,-1.03906 -0.586666,-0.26667 -1.212239,-0.40039 -1.878906,-0.40039 z m 17.71875,0 c -0.693334,0 -1.333256,0.13372 -1.919922,0.40039 -0.586667,0.26667 -1.105261,0.62674 -1.558594,1.08008 -0.453333,0.42666 -0.813412,0.94721 -1.080078,1.56054 -0.24,0.58667 -0.361328,1.21224 -0.361328,1.87891 v 20.43945 c 0,0.66667 0.121328,1.30659 0.361328,1.91993 0.266666,0.58666 0.626745,1.10721 1.080078,1.56054 0.453333,0.42667 0.971927,0.77435 1.558594,1.04102 0.586666,0.24 1.226588,0.35937 1.919922,0.35937 h 4.121093 c 0.666667,0 1.29224,-0.11937 1.878907,-0.35937 0.613333,-0.26667 1.13388,-0.61435 1.560546,-1.04102 0.453334,-0.45333 0.801016,-0.97388 1.041016,-1.56054 0.266667,-0.61334 0.398438,-1.25326 0.398438,-1.91993 v -20.43945 c 0,-0.66667 -0.131771,-1.29224 -0.398438,-1.87891 -0.24,-0.61333 -0.587682,-1.13388 -1.041016,-1.56054 -0.426666,-0.45334 -0.947213,-0.81341 -1.560546,-1.08008 -0.586667,-0.26667 -1.21224,-0.40039 -1.878907,-0.40039 z m 0.121093,3.24023 h 3.839844 c 0.346667,0 0.68,0.13373 1,0.40039 -1.066667,2.82667 -2.134505,5.63946 -3.201172,8.43946 -1.04,2.8 -2.091536,5.61278 -3.158203,8.43945 V 640.6875 c 0,-0.42667 0.14612,-0.78674 0.439453,-1.08008 0.293333,-0.32 0.653412,-0.48047 1.080078,-0.48047 z m 5.359375,5.72071 v 16.51953 c 0,0.42666 -0.14612,0.78674 -0.439453,1.08008 -0.266667,0.29333 -0.626745,0.43945 -1.080078,0.43945 h -3.839844 c -0.506666,0 -0.920234,-0.19961 -1.240234,-0.59961 1.12,-2.90667 2.21263,-5.81404 3.279297,-8.7207 1.093333,-2.90667 2.200312,-5.81209 3.320312,-8.71875 z m 21.062504,57.16015 -4.91993,20.87891 h 11.96094 v 9.36133 h 3.47852 v -9.36133 h 1.04101 v -3.24024 h -1.04101 v -17.63867 h -3.47852 v 17.63867 h -7.52148 l 4.08008,-17.63867 z m 19.12109,0 c -0.69333,0 -1.33326,0.13177 -1.91992,0.39844 -0.58667,0.26667 -1.10722,0.62674 -1.56055,1.08008 -0.45333,0.42666 -0.81341,0.94721 -1.08008,1.56055 -0.24,0.58666 -0.35937,1.21419 -0.35937,1.88085 v 20.43946 c 0,0.66666 0.11937,1.30659 0.35937,1.91992 0.26667,0.58667 0.62675,1.10721 1.08008,1.56055 0.45333,0.42666 0.97388,0.77239 1.56055,1.03906 0.58666,0.24 1.22659,0.36133 1.91992,0.36133 h 4.11914 c 0.66667,0 1.29419,-0.12133 1.88086,-0.36133 0.61333,-0.26667 1.13193,-0.6124 1.55859,-1.03906 0.45334,-0.45334 0.80102,-0.97388 1.04102,-1.56055 0.26667,-0.61333 0.40039,-1.25326 0.40039,-1.91992 v -20.43946 c 0,-0.66666 -0.13372,-1.29419 -0.40039,-1.88085 -0.24,-0.61334 -0.58768,-1.13389 -1.04102,-1.56055 -0.42666,-0.45334 -0.94526,-0.81341 -1.55859,-1.08008 -0.58667,-0.26667 -1.21419,-0.39844 -1.88086,-0.39844 z m 0.11914,3.24024 h 3.83984 c 0.34667,0 0.68,0.13177 1,0.39843 -1.06666,2.82667 -2.13255,5.64141 -3.19921,8.44141 -1.04,2.8 -2.09349,5.61279 -3.16016,8.43945 v -15.7207 c 0,-0.42667 0.14612,-0.78674 0.43945,-1.08008 0.29334,-0.32 0.65341,-0.47851 1.08008,-0.47851 z m 5.35938,5.71875 v 16.51953 c 0,0.42666 -0.14612,0.78674 -0.43946,1.08008 -0.26666,0.29333 -0.62674,0.4414 -1.08008,0.4414 h -3.83984 c -0.50667,0 -0.92023,-0.20156 -1.24023,-0.60156 1.12,-2.90667 2.21458,-5.81208 3.28125,-8.71875 1.09333,-2.90667 2.19836,-5.81404 3.31836,-8.7207 z"
       transform="translate(14.147963,67.095154)"
       inkscape:label="Left Text" />
  </g>
  <ellipse
     style="display:inline;opacity:1;fill:#ffffff;fill-opacity:1;stroke:#0b0000;stroke-width:14;stroke-miterlimit:4;stroke-dasharray:none;stroke-opacity:1"
     id="path1870"
     cx="476.61624"
     cy="406.2016"
     inkscape:label="Gauge Body"
     clip-path="none"
     mask="none"
     rx="399.202"
     ry="399.2016" />
  <path
     id="path1870-1"
     style="display:inline;fill:#ff0000;fill-opacity:1;stroke:none;stroke-width:13.756;stroke-miterlimit:4;stroke-dasharray:none;stroke-opacity:1"
     inkscape:label="External Indicator"
     d="M 84.46532,407.20173 A 392.22565,392.26492 0 0 0 476.61571,798.4361 392.22565,392.26492 0 0 0 868.76805,407.20173 Z" />
  <g
     inkscape:groupmode="layer"
     id="layer5"
     inkscape:label="Internal Scale"
     style="display:inline"
     transform="translate(-28.77101,-67.095154)">
    <circle
       style="display:inline;opacity:1;fill:#000000;fill-opacity:1;stroke:#000000;stroke-width:2.66006"
       id="path1999"
       cx="505.38724"
       cy="473.29675"
       r="348.66998"
       inkscape:label="Center" />
    <path
       id="rect1444"
       style="display:inline;fill:#000000;stroke:#0b0000;stroke-width:0"
       inkscape:label="Scale"
       d="m 200.89601,213.97006 -3.85742,4.59571 280.14648,235.07031 -316.70898,-182.85156 -3,5.19726 316.71289,182.85352 -343.6543,-125.08008 -2.05273,5.63867 343.65429,125.08008 -360.15234,-63.50586 -1.04296,5.91016 360.15038,63.5039 H 105.38625 v 6 h 365.71093 l -360.15624,63.50586 1.04296,5.9082 360.15625,-63.50585 -343.6582,125.08203 2.05273,5.63671 343.6543,-125.08007 -316.71289,182.85547 3,5.19726 316.70508,-182.84961 -280.14258,235.06836 3.85742,4.5957 304.49023,-255.49804 304.48829,255.49804 3.85742,-4.5957 -280.15039,-235.07422 316.71484,182.85547 3,-5.19726 -316.71289,-182.85352 343.65234,125.07812 2.05274,-5.63671 -343.6543,-125.08008 360.15234,63.5039 1.04297,-5.9082 -360.15625,-63.50586 h 365.71289 v -6 H 539.67921 l 360.15039,-63.5039 -1.04297,-5.91016 -360.15039,63.50391 343.65235,-125.07813 -2.05274,-5.63867 -343.65234,125.08008 316.71289,-182.85352 -3,-5.19726 -316.71094,182.85351 280.14649,-235.07226 -3.85742,-4.59571 -304.48829,255.4961 z" />
  </g>
  <g
     inkscape:groupmode="layer"
     id="layer6"
     inkscape:label="Internal Indicator"
     style="display:inline"
     transform="translate(-28.77101,-67.095154)">
    <path
       id="text2892"
       style="font-size:106.667px;line-height:1.25;font-family:'Autobus Bold';-inkscape-font-specification:'Autobus Bold, ';display:inline;fill:#ffffff"
       inkscape:label="Pitch"
       d="m 432.25781,614.86523 v 8.64063 h 6.29297 v 63.35937 h -6.29297 v 8.64063 h 22.08008 v -8.64063 h -6.40039 v -63.35937 h 6.40039 v -8.64063 z m 28.48047,0 v 8.74805 h 13.43945 v 71.89258 h 9.2793 v -71.89258 h 13.44141 v -8.74805 z m 54.29297,0 c -1.77778,0 -3.48553,0.3553 -5.12109,1.06641 -1.56445,0.64 -2.94931,1.56455 -4.15821,2.77344 -1.13778,1.13778 -2.06232,2.52459 -2.77343,4.16015 -0.64001,1.56445 -0.96094,3.23589 -0.96094,5.01368 v 54.61328 c 0,1.77778 0.32093,3.48553 0.96094,5.12109 0.71111,1.56445 1.63565,2.95126 2.77343,4.16016 1.2089,1.13778 2.59376,2.06232 4.15821,2.77344 1.63556,0.64 3.34331,0.95898 5.12109,0.95898 h 10.98633 c 1.77778,0 3.41291,-0.31898 4.90625,-0.95898 1.56445,-0.71112 2.9169,-1.63566 4.05469,-2.77344 1.20889,-1.13778 2.16779,-2.45393 2.8789,-3.94727 0.71112,-1.56445 1.10272,-3.19958 1.17383,-4.90625 v -5.75976 h -9.17383 v 6.08007 c -0.14222,0.99556 -0.60449,1.84748 -1.38672,2.5586 -0.71111,0.71111 -1.56499,1.0664 -2.56054,1.0664 h -10.5586 c -1.13778,0 -2.09863,-0.38965 -2.88086,-1.17187 -0.71111,-0.78223 -1.0664,-1.74308 -1.0664,-2.88086 v -55.25391 c 0,-1.13778 0.35529,-2.09668 1.0664,-2.8789 0.78223,-0.78223 1.74308,-1.17383 2.88086,-1.17383 h 10.5586 c 0.99555,0 1.84943,0.35529 2.56054,1.06641 0.78223,0.71111 1.2445,1.56498 1.38672,2.56054 v 6.08008 h 9.17383 v -5.75977 c -0.0711,-1.70667 -0.46271,-3.30744 -1.17383,-4.80078 -0.71111,-1.56445 -1.67001,-2.91495 -2.8789,-4.05273 -1.13779,-1.13778 -2.49024,-2.02797 -4.05469,-2.66797 -1.49334,-0.71111 -3.12847,-1.06641 -4.90625,-1.06641 z m 32.32031,0 v 80.64063 h 9.38672 v -32.74609 h 18.3457 v 32.74609 h 9.28125 v -80.64063 h -9.28125 v 39.25391 h -18.3457 v -39.25391 z m -160.5332,0.10743 v 80.5332 h 9.38672 v -24.85352 h 14.71875 c 1.77778,0 3.44922,-0.35529 5.01367,-1.0664 1.63556,-0.78223 3.02237,-1.77744 4.16016,-2.98633 1.20889,-1.20889 2.13343,-2.59571 2.77343,-4.16016 0.71112,-1.63556 1.06641,-3.27069 1.06641,-4.90625 v -29.54687 c 0,-1.77779 -0.35529,-3.44922 -1.06641,-5.01367 -0.64,-1.63556 -1.56454,-3.02238 -2.77343,-4.16016 -1.13779,-1.20889 -2.5246,-2.13344 -4.16016,-2.77344 -1.56445,-0.71111 -3.23589,-1.0664 -5.01367,-1.0664 z m 9.38672,8.64062 h 14.39844 c 1.13778,0 2.06232,0.38965 2.77343,1.17188 0.78223,0.78222 1.17383,1.74307 1.17383,2.88086 v 30.29296 c 0,1.06667 -0.3916,2.02753 -1.17383,2.88086 -0.71111,0.78223 -1.63565,1.17383 -2.77343,1.17383 h -14.39844 z"
       transform="translate(14.147963,67.095154)" />
    <rect
       style="display:inline;fill:#ffffff;stroke:#0b0000;stroke-width:0"
       id="rect395"
       width="700"
       height="5.9999995"
       x="155.38725"
       y="470.29675"
       inkscape:label="Dial" />
    <path
       id="text5054"
       style="font-size:106.667px;line-height:1.25;font-family:'Autobus Bold';-inkscape-font-specification:'Autobus Bold, ';display:inline;fill:#ffffff;fill-opacity:1"
       inkscape:label="Roll"
       d="m 404.68555,614.86133 v 80.64062 h 9.38672 v -24.64062 l 2.98632,-0.10547 c 2.84446,4.12446 5.6544,8.24859 8.42774,12.37305 l 8.32031,12.37304 h 10.66602 c -2.84446,-4.12445 -5.65244,-8.24859 -8.42578,-12.37304 -2.77335,-4.12446 -5.58329,-8.24859 -8.42774,-12.37305 1.8489,-0.0711 3.62731,-0.42836 5.33398,-1.06836 1.70668,-0.64 3.20047,-1.52823 4.48047,-2.66602 1.35112,-1.13778 2.417,-2.48828 3.19922,-4.05273 0.78223,-1.56445 1.17383,-3.34287 1.17383,-5.33398 v -29.65235 c 0,-1.77778 -0.35529,-3.44922 -1.06641,-5.01367 -0.64,-1.63556 -1.56454,-3.02237 -2.77343,-4.16016 -1.13778,-1.20889 -2.5246,-2.16974 -4.16016,-2.88086 -1.56445,-0.71111 -3.23589,-1.0664 -5.01367,-1.0664 z m 92.69336,0 v 80.64062 h 28.58789 v -8.64062 h -19.20118 v -72 z m 35.73437,0 v 80.64062 h 28.58594 v -8.64062 H 542.5 v -72 z m -68.48047,0.10742 c -1.84889,0 -3.55664,0.35529 -5.12109,1.06641 -1.56445,0.64 -2.95126,1.56454 -4.16016,2.77343 -1.20889,1.13779 -2.16779,2.5246 -2.8789,4.16016 -0.64001,1.56445 -0.96094,3.23589 -0.96094,5.01367 v 54.50586 c 0,1.77778 0.32093,3.48553 0.96094,5.1211 0.71111,1.56444 1.67001,2.94931 2.8789,4.1582 1.2089,1.13778 2.59571,2.06232 4.16016,2.77344 1.56445,0.64 3.2722,0.96093 5.12109,0.96093 h 10.98633 c 1.77778,0 3.44922,-0.32093 5.01367,-0.96093 1.63556,-0.71112 3.02238,-1.63566 4.16016,-2.77344 1.20889,-1.20889 2.13343,-2.59376 2.77344,-4.1582 0.71111,-1.63557 1.0664,-3.34332 1.0664,-5.1211 v -54.50586 c 0,-1.77778 -0.35529,-3.44922 -1.0664,-5.01367 -0.64001,-1.63556 -1.56455,-3.02237 -2.77344,-4.16016 -1.13778,-1.20889 -2.5246,-2.13343 -4.16016,-2.77343 -1.56445,-0.71112 -3.23589,-1.06641 -5.01367,-1.06641 z m -50.56054,8.63867 h 14.40039 c 1.13778,0 2.06232,0.39161 2.77343,1.17383 0.78223,0.78222 1.17383,1.74308 1.17383,2.88086 v 30.40039 c 0,1.13778 -0.3916,2.09668 -1.17383,2.87891 -0.71111,0.78222 -1.63565,1.17382 -2.77343,1.17382 h -14.40039 z m 50.88085,0 h 10.24024 c 1.13778,0 2.09668,0.39161 2.87891,1.17383 0.78222,0.78222 1.17382,1.74308 1.17382,2.88086 v 55.14648 c 0,1.13779 -0.3916,2.09669 -1.17382,2.87891 -0.78223,0.78222 -1.74113,1.17383 -2.87891,1.17383 h -10.24024 c -1.13778,0 -2.09863,-0.39161 -2.88085,-1.17383 -0.78223,-0.78222 -1.17383,-1.74112 -1.17383,-2.87891 v -55.14648 c 0,-1.13778 0.3916,-2.09864 1.17383,-2.88086 0.78222,-0.78222 1.74307,-1.17383 2.88085,-1.17383 z"
       transform="translate(14.147963,67.095154)" />
  </g>
</svg>
