<?xml version="1.0" encoding="UTF-8" standalone="no"?>
<!-- Created with Inkscape (http://www.inkscape.org/) -->

<svg
   width="9.8045759in"
   height="8.462533in"
   viewBox="0 0 941.23929 812.40317"
   version="1.1"
   id="svg5"
   inkscape:version="1.1.1 (3bf5ae0d25, 2021-09-20)"
   sodipodi:docname="roll_gauge.svg"
   xmlns:inkscape="http://www.inkscape.org/namespaces/inkscape"
   xmlns:sodipodi="http://sodipodi.sourceforge.net/DTD/sodipodi-0.dtd"
   xmlns="http://www.w3.org/2000/svg"
   xmlns:svg="http://www.w3.org/2000/svg">
  <sodipodi:namedview
     id="namedview7"
     pagecolor="#ffffff"
     bordercolor="#666666"
     borderopacity="1.0"
     inkscape:pageshadow="2"
     inkscape:pageopacity="0.0"
     inkscape:pagecheckerboard="true"
     inkscape:document-units="px"
     showgrid="false"
     inkscape:zoom="1.0136358"
     inkscape:cx="730.53852"
     inkscape:cy="406.9509"
     inkscape:window-width="2560"
     inkscape:window-height="1377"
     inkscape:window-x="-8"
     inkscape:window-y="-8"
     inkscape:window-maximized="1"
     inkscape:current-layer="svg5"
     units="in"
     inkscape:showpageshadow="false"
     showborder="true"
     fit-margin-top="0"
     fit-margin-left="0"
     fit-margin-right="0"
     fit-margin-bottom="0" />
  <defs
     id="defs2">
    <rect
       x="305.82977"
       y="541.61462"
       width="403.49799"
       height="149.95525"
       id="rect6584" />
  </defs>
  <g
     inkscape:groupmode="layer"
     id="layer3"
     inkscape:label="External Scale"
     style="display:inline"
     sodipodi:insensitive="true"
     transform="translate(-14.147963,-67.095154)">
    <path
       id="text7867"
       style="font-size:40px;line-height:1.25;font-family:'Autobus Bold';-inkscape-font-specification:'Autobus Bold, ';fill:#ffffff"
       inkscape:label="text"
       d="m 103.05664,73.583984 -4.919921,20.88086 h 11.960941 v 9.359376 h 3.47851 v -9.359376 h 1.04102 v -3.240235 h -1.04102 V 73.583984 h -3.47851 v 17.640625 h -7.52149 l 4.08008,-17.640625 z m 19.12109,0 c -0.69333,0 -1.33325,0.133724 -1.91992,0.400391 -0.58666,0.266667 -1.10721,0.626745 -1.56054,1.080078 -0.45334,0.426667 -0.81342,0.947214 -1.08008,1.560547 -0.24,0.586667 -0.35938,1.21224 -0.35938,1.878906 v 20.441406 c 0,0.666667 0.11938,1.306588 0.35938,1.919918 0.26666,0.58667 0.62674,1.10722 1.08008,1.56055 0.45333,0.42667 0.97388,0.7724 1.56054,1.03906 0.58667,0.24 1.22659,0.35938 1.91992,0.35938 h 4.11915 c 0.66666,0 1.29419,-0.11938 1.88085,-0.35938 0.61334,-0.26666 1.13193,-0.61239 1.5586,-1.03906 0.45333,-0.45333 0.80101,-0.97388 1.04101,-1.56055 0.26667,-0.61333 0.40039,-1.253251 0.40039,-1.919918 V 78.503906 c 0,-0.666666 -0.13372,-1.292239 -0.40039,-1.878906 -0.24,-0.613333 -0.58768,-1.13388 -1.04101,-1.560547 -0.42667,-0.453333 -0.94526,-0.813411 -1.5586,-1.080078 -0.58666,-0.266667 -1.21419,-0.400391 -1.88085,-0.400391 z m 0.11915,3.240235 h 3.83984 c 0.34667,0 0.68,0.133724 1,0.40039 -1.06667,2.826667 -2.13255,5.639453 -3.19922,8.439453 -1.04,2.800001 -2.09349,5.61474 -3.16016,8.441407 V 78.384766 c 0,-0.426667 0.14612,-0.786745 0.43946,-1.080078 0.29333,-0.32 0.65341,-0.480469 1.08008,-0.480469 z m 5.35937,5.720703 v 16.519531 c 0,0.426667 -0.14612,0.786745 -0.43945,1.080077 -0.26667,0.29333 -0.62675,0.43945 -1.08008,0.43945 h -3.83984 c -0.50667,0 -0.92024,-0.1996 -1.24024,-0.599605 1.12,-2.906667 2.21263,-5.812083 3.2793,-8.71875 1.09333,-2.906667 2.20031,-5.814036 3.32031,-8.720703 z M 54.25,138.69727 c -0.666667,0 -1.306589,0.13372 -1.919922,0.40039 -0.586667,0.24 -1.107213,0.58573 -1.560547,1.03906 -0.426666,0.42667 -0.772396,0.94721 -1.039062,1.56055 -0.24,0.58666 -0.361328,1.21224 -0.361328,1.8789 v 2 h 3.361328 v -2.11914 c 0,-0.42667 0.14612,-0.78674 0.439453,-1.08008 0.293333,-0.29333 0.653411,-0.43945 1.080078,-0.43945 h 4.199219 c 0.426666,0 0.786745,0.14612 1.080078,0.43945 0.293333,0.29334 0.439453,0.65341 0.439453,1.08008 v 6.43945 c 0,0.42667 -0.14612,0.78675 -0.439453,1.08008 -0.293333,0.29334 -0.653412,0.44141 -1.080078,0.44141 h -3.839844 v 3.23828 h 4.320313 c 0.426666,0 0.786744,0.14807 1.080078,0.44141 0.293333,0.29333 0.439453,0.65341 0.439453,1.08007 v 8 c 0,0.42667 -0.14612,0.78675 -0.439453,1.08008 -0.293334,0.29334 -0.653412,0.43946 -1.080078,0.43946 h -4.59961 c -0.426667,0 -0.786745,-0.14612 -1.080078,-0.43946 -0.293333,-0.29333 -0.441406,-0.65341 -0.441406,-1.08008 v -2.12109 h -3.359375 v 2 c 0,0.66667 0.119375,1.30659 0.359375,1.91992 0.266666,0.58667 0.614349,1.10722 1.041015,1.56055 0.453334,0.42667 0.973881,0.7724 1.560547,1.03906 0.613334,0.24 1.253255,0.36133 1.919922,0.36133 h 4.759766 c 0.666666,0 1.292239,-0.12133 1.878906,-0.36133 0.613333,-0.26666 1.13388,-0.61239 1.560547,-1.03906 0.453333,-0.45333 0.801015,-0.97388 1.041015,-1.56055 0.266667,-0.61333 0.398438,-1.25325 0.398438,-1.91992 v -7.83984 c 0,-0.69334 -0.131771,-1.31891 -0.398438,-1.87891 -0.266666,-0.56 -0.641093,-1.0949 -1.121093,-1.60156 0.32,-0.45334 0.573099,-0.90604 0.759765,-1.35938 0.186667,-0.48 0.28125,-1.00054 0.28125,-1.56054 v -6.24024 c 0,-0.66666 -0.133724,-1.29224 -0.40039,-1.8789 -0.266667,-0.61334 -0.626745,-1.13388 -1.080078,-1.56055 -0.426667,-0.45333 -0.947214,-0.79906 -1.560547,-1.03906 -0.586667,-0.26667 -1.21224,-0.40039 -1.878907,-0.40039 z m 17.71875,0 c -0.693333,0 -1.333255,0.13372 -1.919922,0.40039 -0.586667,0.26666 -1.10526,0.62674 -1.558594,1.08007 -0.453333,0.42667 -0.813411,0.94526 -1.080078,1.5586 -0.24,0.58666 -0.361328,1.21419 -0.361328,1.88086 v 20.43945 c 0,0.66667 0.121328,1.30659 0.361328,1.91992 0.266667,0.58667 0.626745,1.10722 1.080078,1.56055 0.453334,0.42667 0.971927,0.7724 1.558594,1.03906 0.586667,0.24 1.226589,0.36133 1.919922,0.36133 h 4.121094 c 0.666666,0 1.292239,-0.12133 1.878906,-0.36133 0.613333,-0.26666 1.13388,-0.61239 1.560547,-1.03906 0.453333,-0.45333 0.801015,-0.97388 1.041015,-1.56055 0.266667,-0.61333 0.398438,-1.25325 0.398438,-1.91992 v -20.43945 c 0,-0.66667 -0.131771,-1.2942 -0.398438,-1.88086 -0.24,-0.61334 -0.587682,-1.13193 -1.041015,-1.5586 -0.426667,-0.45333 -0.947214,-0.81341 -1.560547,-1.08007 -0.586667,-0.26667 -1.21224,-0.40039 -1.878906,-0.40039 z m 0.121094,3.24023 h 3.839844 c 0.346666,0 0.68,0.13372 1,0.40039 -1.066667,2.82667 -2.134506,5.63945 -3.201172,8.43945 -1.04,2.8 -2.091537,5.61279 -3.158204,8.43946 v -15.72071 c 0,-0.42666 0.14612,-0.78479 0.439454,-1.07812 0.293333,-0.32 0.653411,-0.48047 1.080078,-0.48047 z m 5.359375,5.71875 v 16.52148 c 0,0.42667 -0.14612,0.78675 -0.439453,1.08008 -0.266667,0.29334 -0.626745,0.43946 -1.080078,0.43946 h -3.839844 c -0.506667,0 -0.920235,-0.19961 -1.240235,-0.59961 1.12,-2.90667 2.212631,-5.81404 3.279297,-8.72071 1.093334,-2.90666 2.200313,-5.81403 3.320313,-8.7207 z m -58.15625,74.89648 c -0.72,0 -1.399063,0.13373 -2.039063,0.40039 -0.64,0.26667 -1.199687,0.6411 -1.679687,1.1211 -0.453334,0.48 -0.827761,1.03969 -1.121094,1.67969 -0.266667,0.61333 -0.398437,1.28 -0.398437,2 v 1.67968 h 3.519531 v -1.67968 c 0,-0.50667 0.172864,-0.93459 0.519531,-1.28125 0.373333,-0.37334 0.813646,-0.5586 1.320312,-0.5586 h 2.839844 c 0.533334,0 0.973646,0.18526 1.320313,0.5586 0.373333,0.34666 0.560547,0.77458 0.560547,1.28125 v 4.71875 c 0,0.64 -0.201563,1.18729 -0.601563,1.64062 -0.373333,0.45333 -0.813646,0.85451 -1.320312,1.20117 l -5,3.39844 c -0.96,0.69333 -1.758438,1.49372 -2.398438,2.40039 -0.613333,0.90667 -0.919922,1.97451 -0.919922,3.20117 v 8.47852 h 13.478516 v -3.24024 h -9.958985 v -5.35937 c 0,-0.66667 0.187214,-1.21396 0.560547,-1.64063 0.373334,-0.45333 0.811693,-0.85255 1.31836,-1.19921 l 5,-3.43946 c 0.96,-0.69333 1.747995,-1.48133 2.361328,-2.36133 0.64,-0.90666 0.958984,-1.97255 0.958984,-3.19921 v -4.59961 c 0,-0.72 -0.14612,-1.38667 -0.439453,-2 -0.266667,-0.64 -0.63914,-1.19969 -1.11914,-1.67969 -0.453334,-0.48 -1.000625,-0.85443 -1.640626,-1.1211 -0.613333,-0.26666 -1.28,-0.40039 -2,-0.40039 z m 16.361328,0 c -0.693333,0 -1.333255,0.13373 -1.919922,0.40039 -0.586667,0.26667 -1.107214,0.62675 -1.560547,1.08008 -0.453333,0.42667 -0.813411,0.94722 -1.080078,1.56055 -0.24,0.58667 -0.359375,1.21224 -0.359375,1.87891 v 20.4414 c 0,0.66667 0.119375,1.30659 0.359375,1.91992 0.266667,0.58667 0.626745,1.10526 1.080078,1.5586 0.453333,0.42666 0.97388,0.77435 1.560547,1.04101 0.586667,0.24 1.226589,0.35938 1.919922,0.35938 h 4.119141 c 0.666666,0 1.294192,-0.11938 1.880859,-0.35938 0.613333,-0.26666 1.131927,-0.61435 1.558594,-1.04101 0.453333,-0.45334 0.801015,-0.97193 1.041015,-1.5586 0.266667,-0.61333 0.400391,-1.25325 0.400391,-1.91992 v -20.4414 c 0,-0.66667 -0.133724,-1.29224 -0.400391,-1.87891 -0.24,-0.61333 -0.587682,-1.13388 -1.041015,-1.56055 -0.426667,-0.45333 -0.945261,-0.81341 -1.558594,-1.08008 -0.586667,-0.26666 -1.214193,-0.40039 -1.880859,-0.40039 z m 0.119141,3.24024 h 3.839843 c 0.346667,0 0.68,0.13372 1,0.40039 -1.066666,2.82667 -2.132552,5.63945 -3.199219,8.43945 -1.04,2.8 -2.093489,5.61474 -3.160156,8.44141 v -15.7207 c 0,-0.42667 0.14612,-0.78675 0.439453,-1.08008 0.293334,-0.32 0.653412,-0.48047 1.080079,-0.48047 z m 5.361328,5.7207 v 16.51953 c 0,0.42667 -0.148073,0.78675 -0.441407,1.08008 -0.266666,0.29333 -0.626744,0.43945 -1.080078,0.43945 h -3.839843 c -0.506667,0 -0.920235,-0.19961 -1.240235,-0.59961 1.12,-2.90666 2.214583,-5.81208 3.28125,-8.71874 1.093333,-2.90667 2.200313,-5.81404 3.320313,-8.72071 z M 1.6152344,304.4375 v 3.24023 h 1.0390625 v 27 H 6.1757812 V 304.4375 Z m 12.6406246,0 c -0.693333,0 -1.333255,0.13372 -1.919921,0.40039 -0.586667,0.26667 -1.107214,0.62675 -1.560547,1.08008 -0.453334,0.42667 -0.8134118,0.94526 -1.0800785,1.55859 -0.24,0.58667 -0.359375,1.2142 -0.359375,1.88086 v 20.43946 c 0,0.66666 0.119375,1.30658 0.359375,1.91992 0.2666667,0.58666 0.6267445,1.10721 1.0800785,1.56054 0.453333,0.42667 0.97388,0.7724 1.560547,1.03907 0.586666,0.24 1.226588,0.36132 1.919921,0.36132 H 18.375 c 0.666667,0 1.294193,-0.12132 1.880859,-0.36132 0.613334,-0.26667 1.131927,-0.6124 1.558594,-1.03907 0.453333,-0.45333 0.801016,-0.97388 1.041016,-1.56054 0.266666,-0.61334 0.40039,-1.25326 0.40039,-1.91992 v -20.43946 c 0,-0.66666 -0.133724,-1.29419 -0.40039,-1.88086 -0.24,-0.61333 -0.587683,-1.13192 -1.041016,-1.55859 -0.426667,-0.45333 -0.94526,-0.81341 -1.558594,-1.08008 -0.586666,-0.26667 -1.214192,-0.40039 -1.880859,-0.40039 z m 0.119141,3.24023 h 3.839844 c 0.346666,0 0.68,0.13178 1,0.39844 -1.066667,2.82667 -2.132552,5.64141 -3.199219,8.44141 -1.04,2.8 -2.09349,5.61278 -3.160156,8.43945 v -15.7207 c 0,-0.42667 0.14612,-0.78675 0.439453,-1.08008 0.293333,-0.32 0.653411,-0.47852 1.080078,-0.47852 z m 5.359375,5.71875 v 16.52149 c 0,0.42667 -0.14612,0.78479 -0.439453,1.07812 -0.266667,0.29334 -0.626745,0.44141 -1.080078,0.44141 H 14.375 c -0.506667,0 -0.920234,-0.19961 -1.240234,-0.59961 1.12,-2.90667 2.214583,-5.81404 3.28125,-8.7207 1.093333,-2.90667 2.198359,-5.81404 3.318359,-8.72071 z m -9.638672,77.85743 c -0.6933332,0 -1.3332551,0.13177 -1.9199218,0.39843 -0.5866666,0.26667 -1.1072135,0.62675 -1.5605468,1.08008 -0.4533334,0.42667 -0.8134115,0.94722 -1.0800782,1.56055 -0.24,0.58667 -0.359375,1.21419 -0.359375,1.88086 v 20.43945 c 0,0.66667 0.119375,1.30659 0.359375,1.91992 0.2666667,0.58667 0.6267448,1.10722 1.0800782,1.56055 0.4533333,0.42667 0.9738802,0.7724 1.5605468,1.03906 0.5866667,0.24 1.2265886,0.36133 1.9199218,0.36133 h 4.119141 c 0.666666,0 1.294192,-0.12133 1.880859,-0.36133 0.613333,-0.26666 1.131927,-0.61239 1.558594,-1.03906 0.453333,-0.45333 0.801016,-0.97388 1.041015,-1.56055 0.266667,-0.61333 0.400391,-1.25325 0.400391,-1.91992 v -20.43945 c 0,-0.66667 -0.133724,-1.29419 -0.400391,-1.88086 -0.24,-0.61333 -0.587682,-1.13388 -1.041015,-1.56055 -0.426667,-0.45333 -0.945261,-0.81341 -1.558594,-1.08008 -0.586667,-0.26666 -1.214193,-0.39843 -1.880859,-0.39843 z m 0.119141,3.24023 h 3.839844 c 0.346666,0 0.679999,0.13177 1,0.39844 -1.066667,2.82666 -2.132553,5.6414 -3.199219,8.4414 -1.04,2.8 -2.0934898,5.61279 -3.1601565,8.43946 v -15.72071 c 0,-0.42666 0.1461198,-0.78674 0.4394531,-1.08007 0.2933334,-0.32 0.6534115,-0.47852 1.0800784,-0.47852 z m 5.359375,5.71875 v 16.51953 c 0,0.42667 -0.14612,0.78675 -0.439453,1.08008 -0.266667,0.29333 -0.626745,0.44141 -1.080078,0.44141 h -3.839844 c -0.5066669,0 -0.9202346,-0.20157 -1.2402346,-0.60157 1.1199996,-2.90666 2.2126306,-5.81208 3.2792966,-8.71875 1.093334,-2.90666 2.200313,-5.81403 3.320313,-8.7207 z M 0,474.44531 v 3.24024 h 1.0390625 v 27 h 3.5214844 v -30.24024 z m 12.640625,0 c -0.693333,0 -1.333255,0.13373 -1.919922,0.40039 -0.586667,0.26667 -1.1072134,0.62675 -1.5605468,1.08008 -0.4533333,0.42667 -0.8134114,0.94526 -1.0800781,1.5586 -0.24,0.58666 -0.359375,1.21419 -0.359375,1.88085 v 20.43946 c 0,0.66666 0.119375,1.30659 0.359375,1.91992 0.2666667,0.58667 0.6267448,1.10721 1.0800781,1.56055 0.4533334,0.42666 0.9738798,0.77239 1.5605468,1.03906 0.586667,0.24 1.226589,0.36133 1.919922,0.36133 h 4.119141 c 0.666666,0 1.294192,-0.12133 1.880859,-0.36133 0.613333,-0.26667 1.131927,-0.6124 1.558594,-1.03906 0.453333,-0.45334 0.801015,-0.97388 1.041015,-1.56055 0.266667,-0.61333 0.400391,-1.25326 0.400391,-1.91992 v -20.43946 c 0,-0.66666 -0.133724,-1.29419 -0.400391,-1.88085 -0.24,-0.61334 -0.587682,-1.13193 -1.041015,-1.5586 -0.426667,-0.45333 -0.945261,-0.81341 -1.558594,-1.08008 -0.586667,-0.26666 -1.214193,-0.40039 -1.880859,-0.40039 z m 0.119141,3.24024 h 3.839843 c 0.346667,0 0.68,0.13372 1,0.40039 -1.066666,2.82666 -2.132552,5.63945 -3.199218,8.43945 -1.04,2.8 -2.09349,5.61279 -3.160157,8.43945 v -15.7207 c 0,-0.42667 0.14612,-0.78674 0.439454,-1.08008 0.293333,-0.32 0.653411,-0.47851 1.080078,-0.47851 z m 5.359375,5.71875 v 16.52148 c 0,0.42667 -0.14612,0.78675 -0.439453,1.08008 -0.266667,0.29333 -0.626745,0.43945 -1.080079,0.43945 h -3.839843 c -0.506667,0 -0.920235,-0.19961 -1.240235,-0.59961 1.12,-2.90666 2.214584,-5.81403 3.28125,-8.7207 1.093334,-2.90667 2.19836,-5.81404 3.31836,-8.7207 z m -7.345703,74.89648 c -0.72,0 -1.4010161,0.13373 -2.0410161,0.40039 -0.64,0.26667 -1.1996875,0.6411 -1.6796875,1.1211 -0.4533334,0.48 -0.8258073,1.03968 -1.1191406,1.67968 -0.2666667,0.61334 -0.4003907,1.28 -0.4003907,2 v 1.67969 h 3.5195313 v -1.67969 c 0,-0.50666 0.1728646,-0.93458 0.5195312,-1.28125 0.3733334,-0.37333 0.8136454,-0.55859 1.3203124,-0.55859 h 2.839844 c 0.533333,0 0.973646,0.18526 1.320312,0.55859 0.373334,0.34667 0.560547,0.77459 0.560547,1.28125 v 4.71875 c 0,0.64 -0.199609,1.18729 -0.599609,1.64063 -0.373333,0.45333 -0.813646,0.8545 -1.320313,1.20117 l -4.9999996,3.39844 c -0.96,0.69333 -1.7603906,1.49372 -2.4003906,2.40039 -0.6133334,0.90666 -0.9199219,1.9745 -0.9199219,3.20117 v 8.47852 H 18.853516 v -3.24024 H 8.8925781 v -5.35937 c 0,-0.66667 0.1872136,-1.21396 0.5605469,-1.64063 0.3733333,-0.45333 0.813646,-0.85255 1.320313,-1.19922 l 5,-3.43945 c 0.959999,-0.69333 1.746041,-1.48133 2.359374,-2.36133 0.640001,-0.90667 0.958985,-1.97255 0.958985,-3.19922 v -4.59961 c 0,-0.72 -0.14612,-1.38666 -0.439453,-2 -0.266667,-0.64 -0.639141,-1.19968 -1.119141,-1.67968 -0.453333,-0.48 -1.000625,-0.85443 -1.640625,-1.1211 -0.613333,-0.26666 -1.28,-0.40039 -2,-0.40039 z m 16.359374,0 c -0.693333,0 -1.333255,0.13373 -1.919921,0.40039 -0.586667,0.26667 -1.107214,0.62675 -1.560547,1.08008 -0.453334,0.42667 -0.813412,0.94721 -1.080078,1.56055 -0.24,0.58666 -0.359375,1.21224 -0.359375,1.8789 v 20.44141 c 0,0.66667 0.119375,1.30659 0.359375,1.91992 0.266666,0.58667 0.626744,1.10526 1.080078,1.55859 0.453333,0.42667 0.97388,0.77435 1.560547,1.04102 0.586666,0.24 1.226588,0.35938 1.919921,0.35938 h 4.119141 c 0.666667,0 1.294193,-0.11938 1.880859,-0.35938 0.613334,-0.26667 1.133881,-0.61435 1.560547,-1.04102 0.453334,-0.45333 0.799063,-0.97192 1.039063,-1.55859 0.266667,-0.61333 0.40039,-1.25325 0.40039,-1.91992 V 563.2207 c 0,-0.66666 -0.133723,-1.29224 -0.40039,-1.8789 -0.24,-0.61334 -0.585729,-1.13388 -1.039063,-1.56055 -0.426666,-0.45333 -0.947213,-0.81341 -1.560547,-1.08008 -0.586666,-0.26666 -1.214192,-0.40039 -1.880859,-0.40039 z m 0.119141,3.24024 h 3.839844 c 0.346667,0 0.68,0.13372 1,0.40039 -1.066667,2.82666 -2.132552,5.63945 -3.199219,8.43945 -1.04,2.8 -2.093489,5.61474 -3.160156,8.44141 v -15.72071 c 0,-0.42666 0.14612,-0.78674 0.439453,-1.08008 0.293333,-0.32 0.653411,-0.48046 1.080078,-0.48046 z m 5.361328,5.7207 v 16.51953 c 0,0.42667 -0.148073,0.78674 -0.441406,1.08008 -0.266667,0.29333 -0.626745,0.43945 -1.080078,0.43945 h -3.839844 c -0.506667,0 -0.918281,-0.19961 -1.238281,-0.59961 1.12,-2.90666 2.21263,-5.81208 3.279297,-8.71875 1.093333,-2.90666 2.200312,-5.81403 3.320312,-8.7207 z m 18.048828,67.0039 c -0.666666,10e-6 -1.308541,0.13373 -1.921875,0.4004 -0.586666,0.24 -1.10526,0.58572 -1.558593,1.03906 -0.426667,0.42666 -0.774349,0.94721 -1.041016,1.56054 -0.24,0.58667 -0.359375,1.2142 -0.359375,1.88086 v 2 h 3.359375 v -2.12109 c 0,-0.42667 0.148073,-0.78674 0.441406,-1.08008 0.293334,-0.29333 0.653412,-0.43945 1.080078,-0.43945 h 4.199219 c 0.426667,0 0.786745,0.14612 1.080078,0.43945 0.293334,0.29334 0.439453,0.65341 0.439453,1.08008 v 6.43945 c 0,0.42667 -0.146119,0.78675 -0.439453,1.08008 -0.293333,0.29334 -0.653411,0.44141 -1.080078,0.44141 h -3.839844 v 3.24023 h 4.320313 c 0.426667,0 0.786745,0.14612 1.080078,0.43946 0.293333,0.29333 0.439453,0.65341 0.439453,1.08007 v 8 c 0,0.42667 -0.14612,0.78675 -0.439453,1.08008 -0.293333,0.29334 -0.653411,0.43945 -1.080078,0.43945 h -4.601563 c -0.426666,10e-6 -0.784791,-0.14611 -1.078125,-0.43945 -0.293333,-0.29333 -0.441406,-0.65341 -0.441406,-1.08008 V 657.625 h -3.359375 v 2 c 0,0.66667 0.119375,1.30659 0.359375,1.91992 0.266667,0.58667 0.614349,1.10722 1.041016,1.56055 0.453333,0.42667 0.971927,0.77435 1.558593,1.04101 0.613334,0.24 1.253256,0.35938 1.919922,0.35938 h 4.761719 c 0.666667,0 1.29224,-0.11938 1.878906,-0.35938 0.613334,-0.26666 1.133881,-0.61434 1.560547,-1.04101 0.453334,-0.45333 0.799063,-0.97388 1.039063,-1.56055 0.266666,-0.61333 0.40039,-1.25325 0.40039,-1.91992 v -7.83984 c 0,-0.69334 -0.133724,-1.31891 -0.40039,-1.87891 -0.266667,-0.56 -0.639141,-1.09294 -1.119141,-1.59961 0.32,-0.45333 0.573099,-0.90799 0.759766,-1.36133 0.186666,-0.48 0.279297,-1.00054 0.279297,-1.56054 v -6.23829 c 0,-0.66666 -0.131771,-1.29419 -0.398438,-1.88086 -0.266667,-0.61333 -0.626745,-1.13388 -1.080078,-1.56054 -0.426667,-0.45334 -0.947214,-0.79906 -1.560547,-1.03906 -0.586667,-0.26667 -1.214193,-0.4004 -1.880859,-0.4004 z m 17.71875,0 c -0.693333,10e-6 -1.333255,0.13373 -1.919921,0.4004 -0.586667,0.26666 -1.107214,0.62674 -1.560547,1.08007 -0.453334,0.42667 -0.813412,0.94722 -1.080079,1.56055 -0.239999,0.58667 -0.359374,1.21224 -0.359374,1.87891 V 659.625 c -10e-7,0.66667 0.119375,1.30659 0.359374,1.91992 0.266667,0.58667 0.626745,1.10722 1.080079,1.56055 0.453333,0.42667 0.97388,0.77435 1.560547,1.04101 0.586666,0.24 1.226588,0.35938 1.919921,0.35938 h 4.121094 c 0.666667,0 1.29224,-0.11938 1.878906,-0.35938 0.613334,-0.26666 1.133881,-0.61434 1.560547,-1.04101 0.453334,-0.45333 0.799063,-0.97388 1.039063,-1.56055 0.266666,-0.61333 0.40039,-1.25325 0.40039,-1.91992 v -20.43945 c 0,-0.66667 -0.133724,-1.29224 -0.40039,-1.87891 -0.24,-0.61333 -0.585729,-1.13388 -1.039063,-1.56055 -0.426666,-0.45333 -0.947213,-0.81341 -1.560547,-1.08007 -0.586666,-0.26667 -1.212239,-0.4004 -1.878906,-0.4004 z m 0.121094,3.24024 h 3.839844 c 0.346667,0 0.68,0.13372 1,0.40039 -1.066667,2.82667 -2.134505,5.63945 -3.201172,8.43945 -1.04,2.8 -2.09349,5.61279 -3.160156,8.43946 v -15.71875 c 0,-0.42667 0.148073,-0.78675 0.441406,-1.08008 0.293333,-0.32 0.653411,-0.48047 1.080078,-0.48047 z m 5.359375,5.7207 v 16.51953 c 0,0.42667 -0.14612,0.78675 -0.439453,1.08008 -0.266667,0.29334 -0.626745,0.43945 -1.080078,0.43945 h -3.839844 c -0.506667,10e-6 -0.920234,-0.1996 -1.240234,-0.5996 1.12,-2.90667 2.21263,-5.81404 3.279297,-8.72071 1.093333,-2.90666 2.200312,-5.81208 3.320312,-8.71875 z m 18.701172,61.08399 -4.919922,20.88086 h 11.960938 v 9.35937 h 3.478514 v -9.35937 h 1.04102 v -3.24024 h -1.04102 v -17.64062 h -3.478514 v 17.64062 h -7.521485 l 4.080078,-17.64062 z m 19.12109,0 c -0.69333,0 -1.33325,0.13372 -1.91992,0.40039 -0.58666,0.26666 -1.10721,0.62674 -1.56055,1.08008 -0.45333,0.42666 -0.81341,0.94721 -1.08007,1.56054 -0.24,0.58667 -0.35938,1.21224 -0.35938,1.87891 v 20.43945 c 0,0.66667 0.11938,1.30659 0.35938,1.91992 0.26666,0.58667 0.62674,1.10722 1.08007,1.56055 0.45334,0.42667 0.97389,0.77435 1.56055,1.04102 0.58667,0.24 1.22659,0.35937 1.91992,0.35937 h 4.11914 c 0.66667,0 1.2942,-0.11937 1.88086,-0.35937 0.61334,-0.26667 1.13193,-0.61435 1.5586,-1.04102 0.45333,-0.45333 0.80101,-0.97388 1.04101,-1.56055 0.26667,-0.61333 0.40039,-1.25325 0.40039,-1.91992 v -20.43945 c 0,-0.66667 -0.13372,-1.29224 -0.40039,-1.87891 -0.24,-0.61333 -0.58768,-1.13388 -1.04101,-1.56054 -0.42667,-0.45334 -0.94526,-0.81342 -1.5586,-1.08008 -0.58666,-0.26667 -1.21419,-0.40039 -1.88086,-0.40039 z m 0.11914,3.24023 h 3.83985 c 0.34666,0 0.68,0.13373 1,0.40039 -1.06667,2.82667 -2.13255,5.63945 -3.19922,8.43945 -1.04,2.80001 -2.09349,5.61279 -3.16016,8.43946 v -15.71875 c 0,-0.42667 0.14612,-0.78675 0.43946,-1.08008 0.29333,-0.32 0.65341,-0.48047 1.08007,-0.48047 z m 5.35938,5.7207 v 16.51954 c 0,0.42666 -0.14612,0.78674 -0.43945,1.08007 -0.26667,0.29334 -0.62675,0.43946 -1.08008,0.43946 h -3.83985 c -0.50666,0 -0.92023,-0.19961 -1.24023,-0.59961 1.12,-2.90667 2.21263,-5.81404 3.2793,-8.72071 1.09333,-2.90666 2.20031,-5.81208 3.32031,-8.71875 z"
       transform="translate(14.147963,67.095154)" />
    <path
       id="rect7593-8"
       style="fill:#ffffff;fill-opacity:1;stroke:#0b0000;stroke-width:0;stroke-miterlimit:4;stroke-dasharray:none;stroke-opacity:1"
       inkscape:label="scale"
       d="m 147.80469,115.41602 -2.57031,3.0625 309.64062,259.81836 -314.72461,-220.3711 -2.29297,3.27539 314.70703,220.36133 -350.03711,-202.09375 -2,3.46484 350.05274,202.10352 -348.20703,-162.37305 -1.69141,3.625 L 448.87305,388.6543 69.0625,250.41406 67.693359,254.17188 447.51172,392.41406 76.408203,292.97852 75.373047,296.8418 446.47461,396.27734 48.423828,326.08984 47.728516,330.0293 445.78125,400.2168 63.050781,366.73242 62.701172,370.7168 445.42969,404.20117 H 41.240234 v 4 H 445.42969 l -382.728518,33.48438 0.349609,3.98633 382.708989,-33.48243 -398.031254,70.1836 0.695312,3.93945 L 446.49609,416.12109 75.373047,515.5625 76.408203,519.42578 447.50586,419.99023 67.693359,558.23047 69.0625,561.99023 448.87305,423.75 100.68164,586.11523 l 1.69141,3.625 348.17968,-162.35937 -350.02539,202.08789 2,3.46484 350.05078,-202.10156 -314.7207,220.36914 2.29297,3.27735 314.72656,-220.375 -309.64257,259.82031 2.57031,3.06445 343.43554,-288.17578 343.4336,288.17578 2.57031,-3.06445 -309.63281,-259.8125 314.71679,220.36719 2.29297,-3.27735 -314.7207,-220.36914 350.05078,202.10156 2,-3.46484 -350.02539,-202.08789 348.17969,162.35937 1.69141,-3.625 -348.20118,-162.36914 379.82032,138.24414 1.36914,-3.75976 -379.80664,-138.23828 371.09179,99.43359 1.03516,-3.86328 -371.12305,-99.44141 398.07227,70.19141 0.69531,-3.93945 -398.03125,-70.1836 382.71094,33.48243 0.34765,-3.98633 -382.72461,-33.48438 h 404.1875 v -4 H 537.05273 L 919.77734,370.7168 919.42969,366.73242 536.69141,400.2168 934.75,330.0293 l -0.69531,-3.93946 -398.03321,70.1836 371.08399,-99.43164 -1.03516,-3.86328 -371.10742,99.4375 379.82227,-138.24414 -1.36914,-3.75782 -379.81836,138.24219 348.19922,-162.36719 -1.69141,-3.625 -348.18945,162.36328 350.03515,-202.09375 -2,-3.46484 -350.04687,202.09961 314.71679,-220.36719 -2.29297,-3.27539 -314.73437,220.38086 309.65039,-259.82812 -2.57031,-3.0625 -343.43555,288.17578 z"
       transform="translate(14.147963,67.095154)" />
  </g>
  <circle
     style="fill:#000000;fill-rule:evenodd;stroke-width:0;fill-opacity:1"
     id="path903"
     cx="491"
     cy="406"
     r="406" />
  <ellipse
     style="display:inline;opacity:1;fill:#ffffff;fill-opacity:1;stroke:#0b0000;stroke-width:14;stroke-miterlimit:4;stroke-dasharray:none;stroke-opacity:1"
     id="path1870"
     cx="491.23929"
     cy="406.2016"
     inkscape:label="Gauge Body"
     clip-path="none"
     mask="none"
     rx="399.202"
     ry="399.2016" />
  <path
     id="path1870-1"
     style="display:inline;fill:#ff0000;fill-opacity:1;stroke:none;stroke-width:13.756;stroke-miterlimit:4;stroke-dasharray:none;stroke-opacity:1"
     inkscape:label="External Indicator"
     d="M 99.088367,407.20173 A 392.22565,392.26492 0 0 0 491.23876,798.4361 392.22565,392.26492 0 0 0 883.3911,407.20173 Z" />
  <g
     inkscape:groupmode="layer"
     id="layer5"
     inkscape:label="Internal Scale"
     style="display:inline"
     transform="translate(-14.147963,-67.095154)">
    <circle
       style="display:inline;opacity:1;fill:#000000;fill-opacity:1;stroke:#000000;stroke-width:2.66006"
       id="path1999"
       cx="505.38724"
       cy="473.29675"
       r="348.66998"
       inkscape:label="Center" />
    <path
       id="circle551"
       style="display:none;opacity:1;fill:#ffffff;fill-rule:evenodd;stroke:none;stroke-width:14.0141"
       inkscape:label="Clipping Path"
       d="M 949.57831,1034.3549 A 398.04953,401.15247 52.29771 0 1 549.58353,1436.5563 398.04953,401.15247 52.29771 0 1 149.58876,1040.3545 398.04953,401.15247 52.29771 0 1 549.58353,638.15314 398.04953,401.15247 52.29771 0 1 949.57831,1034.3549 Z m -50.63204,0.3797 A 347.66374,350.37389 52.297576 0 1 549.58353,1386.0247 347.66374,350.37389 52.297576 0 1 200.22079,1039.9748 347.66374,350.37389 52.297576 0 1 549.58353,688.68475 347.66374,350.37389 52.297576 0 1 898.94627,1034.7346 Z"
       clip-path="none" />
    <g
       id="g1462"
       inkscape:label="Scale Lines"
       transform="translate(-51.295494,-564.05797)">
      <rect
         style="fill:#000000;stroke:#0b0000;stroke-width:0"
         id="rect1444"
         width="800"
         height="5.9999995"
         x="-645.14288"
         y="1145.4713"
         inkscape:label="-40"
         transform="rotate(-40)" />
      <rect
         style="fill:#000000;stroke:#0b0000;stroke-width:0"
         id="rect1446"
         width="800"
         height="5.9999995"
         x="-441.98868"
         y="1170.592"
         inkscape:label="-30"
         transform="rotate(-30)" />
      <rect
         style="fill:#000000;stroke:#0b0000;stroke-width:0"
         id="rect1448"
         width="800"
         height="5.9999995"
         x="-237.55865"
         y="1160.0538"
         inkscape:label="-20"
         transform="rotate(-20)" />
      <rect
         style="fill:#000000;stroke:#0b0000;stroke-width:0"
         id="rect1450"
         width="800"
         height="5.9999995"
         x="-38.064335"
         y="1114.1768"
         inkscape:label="-10"
         transform="rotate(-10)" />
      <rect
         style="fill:#000000;stroke:#0b0000;stroke-width:0"
         id="rect1452"
         width="800"
         height="5.9999995"
         x="688.45477"
         y="437.84857"
         inkscape:label="40"
         transform="rotate(40)" />
      <rect
         style="fill:#000000;stroke:#0b0000;stroke-width:0"
         id="rect1454"
         width="800"
         height="5.9999995"
         x="595.36615"
         y="620.1593"
         inkscape:label="30"
         transform="rotate(30)" />
      <rect
         style="fill:#000000;stroke:#0b0000;stroke-width:0"
         id="rect1456"
         width="800"
         height="5.9999995"
         x="472.03384"
         y="783.53564"
         inkscape:label="20"
         transform="rotate(20)" />
      <rect
         style="fill:#000000;stroke:#0b0000;stroke-width:0"
         id="rect1458"
         width="800"
         height="5.9999995"
         x="322.20523"
         y="923.01349"
         inkscape:label="10"
         transform="rotate(10)" />
      <rect
         style="fill:#000000;stroke:#0b0000;stroke-width:0"
         id="rect1460"
         width="800"
         height="5.9999995"
         x="150.43275"
         y="1034.3549"
         inkscape:label="0" />
    </g>
  </g>
  <g
     inkscape:groupmode="layer"
     id="layer6"
     inkscape:label="Internal Indicator"
     style="display:inline"
     transform="translate(-14.147963,-67.095154)">
    <text
       xml:space="preserve"
       id="text6582"
       style="font-size:106.667px;line-height:1.25;font-family:'Autobus Bold';-inkscape-font-specification:'Autobus Bold, ';white-space:pre;shape-inside:url(#rect6584);fill:#ffffff"
       transform="translate(116.78376,128.25119)"><tspan
         x="305.83008"
         y="634.94886"
         id="tspan1348">ROLL</tspan></text>
    <rect
       style="display:inline;fill:#ffffff;stroke:#0b0000;stroke-width:0"
       id="rect395"
       width="700"
       height="5.9999995"
       x="155.38725"
       y="470.29675"
       inkscape:label="Dial" />
  </g>
</svg>
